<svg width="234" height="333" viewBox="0 0 234 333" fill="none" xmlns="http://www.w3.org/2000/svg">
<g filter="url(#filter0_f_625_1973)">
<path fill-rule="evenodd" clip-rule="evenodd" d="M22.5997 16C22.9263 17.4554 23.2965 18.8221 23.7131 20.09C22.4947 37.2676 20.7891 72.2232 23.7131 74.6247C27.3681 77.6266 32.8506 91.6356 32.8506 99.6407C32.8506 107.646 26.7589 140.167 23.7131 148.172C20.6672 156.177 21.2764 208.21 29.8047 216.715C32.4444 230.391 37.8457 258.942 38.3331 263.745C38.9422 269.749 39.5514 284.759 32.8506 291.763C27.65 297.199 24.651 299.923 21.2906 302.976C20.3212 303.856 19.3217 304.764 18.2306 305.772C15.3878 309.274 12.9917 316.379 26.1497 316.779C39.3077 317.179 61.6846 316.946 71.2283 316.779C71.2283 308.941 70.6192 291.063 68.1825 282.257C65.1367 271.25 65.1367 236.228 68.1825 231.225C71.2283 226.221 86.4575 176.19 84.63 172.187C83.9589 170.717 84.0271 164.321 84.1107 156.494C84.2547 143.007 84.4441 125.27 80.975 121.154C82.5994 111.482 87.3103 89.9345 93.1583 81.1288C97.5586 74.5031 103.283 41.7714 106.745 16H22.5997ZM121.837 16C124.275 48.1728 129.047 90.9221 142.501 107.646C143.922 115.484 145.912 132.962 142.501 140.167C143.516 159.345 147.861 203.207 157.121 225.221C159.964 232.726 165.04 254.639 162.603 282.257V316.779H216.21C219.053 313.944 221.083 307.373 206.463 303.771C201.996 300.435 193.062 292.163 193.062 285.759C193.062 283.64 192.806 279.803 192.497 275.176C191.639 262.325 190.374 243.379 193.062 238.229C196.717 231.225 213.773 178.691 210.118 156.177C209.382 151.641 208.769 147.593 208.221 143.967C206.045 129.592 204.872 121.845 200.981 116.652C196.108 110.147 202.808 87.1327 204.636 84.1308C205.581 82.5775 206.527 49.6777 206.713 16H121.837Z" fill="black"/>
<path d="M22.5997 16V15.5H21.975L22.1118 16.1095L22.5997 16ZM23.7131 20.09L24.2118 20.1253L24.2188 20.0273L24.1881 19.9339L23.7131 20.09ZM23.7131 74.6247L23.3957 75.0111L23.3957 75.0111L23.7131 74.6247ZM23.7131 148.172L24.1804 148.349L24.1804 148.349L23.7131 148.172ZM29.8047 216.715L30.2957 216.621L30.2666 216.47L30.1578 216.361L29.8047 216.715ZM38.3331 263.745L38.8305 263.695L38.8305 263.695L38.3331 263.745ZM32.8506 291.763L33.2119 292.109L33.2119 292.109L32.8506 291.763ZM21.2906 302.976L21.6268 303.346L21.6268 303.346L21.2906 302.976ZM18.2306 305.772L17.8913 305.405L17.8649 305.429L17.8424 305.457L18.2306 305.772ZM26.1497 316.779L26.1345 317.279L26.1345 317.279L26.1497 316.779ZM71.2283 316.779L71.2371 317.279L71.7283 317.27V316.779H71.2283ZM68.1825 282.257L67.7006 282.39L67.7006 282.39L68.1825 282.257ZM84.63 172.187L84.1752 172.395L84.1752 172.395L84.63 172.187ZM84.1107 156.494L84.6107 156.499L84.6107 156.499L84.1107 156.494ZM80.975 121.154L80.4819 121.072L80.4436 121.3L80.5927 121.477L80.975 121.154ZM93.1583 81.1288L93.5748 81.4055L93.5748 81.4055L93.1583 81.1288ZM106.745 16L107.24 16.0666L107.317 15.5H106.745V16ZM121.837 16V15.5H121.297L121.338 16.0378L121.837 16ZM142.501 107.646L142.993 107.557L142.97 107.431L142.89 107.332L142.501 107.646ZM142.501 140.167L142.049 139.953L141.995 140.067L142.002 140.193L142.501 140.167ZM157.121 225.221L157.588 225.044L157.585 225.035L157.582 225.027L157.121 225.221ZM162.603 282.257L162.105 282.213L162.103 282.235V282.257H162.603ZM162.603 316.779H162.103V317.279H162.603V316.779ZM216.21 316.779V317.279H216.417L216.563 317.133L216.21 316.779ZM206.463 303.771L206.164 304.171L206.245 304.232L206.344 304.256L206.463 303.771ZM192.497 275.176L191.998 275.21L191.998 275.21L192.497 275.176ZM193.062 238.229L192.618 237.998L192.618 237.998L193.062 238.229ZM210.118 156.177L209.625 156.257L209.625 156.257L210.118 156.177ZM208.221 143.967L208.715 143.892L208.715 143.892L208.221 143.967ZM200.981 116.652L200.581 116.951L200.581 116.951L200.981 116.652ZM204.636 84.1308L204.209 83.8708L204.209 83.8708L204.636 84.1308ZM206.713 16L207.213 16.0028L207.216 15.5H206.713V16ZM22.1118 16.1095C22.4414 17.5782 22.8157 18.9606 23.238 20.246L24.1881 19.9339C23.7773 18.6835 23.4112 17.3327 23.0875 15.8905L22.1118 16.1095ZM23.2143 20.0546C22.6048 28.6485 21.8732 41.691 21.6598 52.8888C21.5531 58.4862 21.5756 63.633 21.8091 67.536C21.9257 69.4857 22.0957 71.1396 22.3323 72.3895C22.4505 73.0137 22.5879 73.5519 22.75 73.9816C22.9063 74.3962 23.109 74.7756 23.3957 75.0111L24.0304 74.2383C23.9517 74.1737 23.825 73.9985 23.6857 73.6289C23.552 73.2743 23.4275 72.7985 23.3149 72.2035C23.0898 71.015 22.9229 69.4098 22.8073 67.4763C22.5762 63.6128 22.5531 58.4968 22.6596 52.9079C22.8726 41.7332 23.603 28.7091 24.2118 20.1253L23.2143 20.0546ZM23.3957 75.0111C24.2325 75.6984 25.223 77.0661 26.2451 78.916C27.2588 80.7508 28.2771 83.0105 29.1842 85.4319C31.0032 90.2873 32.3506 95.7255 32.3506 99.6407H33.3506C33.3506 95.5507 31.9567 89.982 30.1207 85.0811C29.2003 82.6245 28.1626 80.3187 27.1204 78.4324C26.0865 76.5611 25.0211 75.052 24.0304 74.2383L23.3957 75.0111ZM32.3506 99.6407C32.3506 103.588 30.8384 113.671 28.9326 123.814C27.0272 133.954 24.75 144.04 23.2457 147.994L24.1804 148.349C25.722 144.298 28.0135 134.121 29.9154 123.998C31.8169 113.878 33.3506 103.699 33.3506 99.6407H32.3506ZM23.2457 147.994C22.8412 149.057 22.5125 150.799 22.2539 153.008C21.9938 155.231 21.8003 157.967 21.681 161.043C21.4424 167.197 21.4998 174.733 21.9194 182.284C22.3389 189.832 23.1211 197.409 24.3359 203.639C24.9432 206.753 25.6608 209.543 26.5001 211.829C27.3354 214.104 28.3082 215.929 29.4516 217.069L30.1578 216.361C29.1692 215.375 28.2574 213.714 27.4389 211.484C26.6243 209.265 25.919 206.532 25.3175 203.447C24.1146 197.279 23.3359 189.752 22.9178 182.228C22.4998 174.706 22.443 167.202 22.6803 161.082C22.7989 158.022 22.9909 155.313 23.2471 153.125C23.5049 150.923 23.8234 149.288 24.1804 148.349L23.2457 147.994ZM29.3138 216.81C31.9571 230.504 37.3512 259.022 37.8356 263.796L38.8305 263.695C38.3402 258.863 32.9318 230.277 30.2957 216.621L29.3138 216.81ZM37.8356 263.796C38.1382 266.778 38.4399 271.993 37.8362 277.323C37.2304 282.672 35.7229 288.037 32.4893 291.418L33.2119 292.109C36.679 288.485 38.2174 282.843 38.8299 277.435C39.4446 272.008 39.1371 266.716 38.8305 263.695L37.8356 263.796ZM32.4893 291.418C27.3004 296.841 24.3112 299.557 20.9545 302.605L21.6268 303.346C24.9909 300.29 27.9997 297.557 33.2119 292.109L32.4893 291.418ZM20.9545 302.605C19.9852 303.486 18.9842 304.395 17.8913 305.405L18.5699 306.139C19.6592 305.133 20.6572 304.226 21.6268 303.346L20.9545 302.605ZM17.8424 305.457C17.1044 306.366 16.3896 307.515 15.9478 308.744C15.5069 309.97 15.3245 311.315 15.7116 312.585C16.5047 315.185 19.5227 317.078 26.1345 317.279L26.1649 316.279C19.6188 316.08 17.2558 314.22 16.6681 312.293C16.3648 311.298 16.4921 310.186 16.8888 309.082C17.2846 307.981 17.9354 306.929 18.6188 306.087L17.8424 305.457ZM26.1345 317.279C39.3058 317.679 61.6934 317.446 71.2371 317.279L71.2196 316.279C61.6759 316.446 39.3097 316.679 26.1649 316.279L26.1345 317.279ZM71.7283 316.779C71.7283 312.85 71.5757 306.409 71.118 299.846C70.6609 293.294 69.8972 286.579 68.6644 282.124L67.7006 282.39C68.9044 286.741 69.6637 293.368 70.1204 299.916C70.5763 306.453 70.7283 312.87 70.7283 316.779H71.7283ZM68.6644 282.124C67.1616 276.693 66.3981 265.248 66.3981 254.489C66.3981 249.121 66.5882 243.946 66.9671 239.807C67.1567 237.737 67.3927 235.934 67.6738 234.498C67.9584 233.045 68.2789 232.028 68.6096 231.485L67.7554 230.965C67.3247 231.672 66.9788 232.844 66.6924 234.306C66.4024 235.787 66.1625 237.627 65.9713 239.716C65.5888 243.894 65.3981 249.101 65.3981 254.489C65.3981 265.244 66.1575 276.814 67.7006 282.39L68.6644 282.124ZM68.6096 231.485C69.0183 230.813 69.6045 229.441 70.3061 227.593C71.0137 225.73 71.8536 223.343 72.7685 220.611C74.5985 215.147 76.7325 208.292 78.7139 201.47C80.695 194.649 82.5254 187.853 83.7468 182.508C84.3572 179.837 84.8177 177.519 85.068 175.737C85.1931 174.847 85.2673 174.08 85.2798 173.465C85.2918 172.874 85.2504 172.342 85.0848 171.979L84.1752 172.395C84.238 172.532 84.2918 172.86 84.28 173.444C84.2687 174.004 84.2002 174.727 84.0778 175.598C83.8332 177.338 83.3799 179.625 82.7719 182.285C81.5566 187.603 79.7321 194.379 77.7536 201.191C75.7754 208.002 73.6453 214.844 71.8203 220.293C70.9076 223.018 70.0724 225.392 69.3712 227.238C68.6642 229.1 68.1082 230.385 67.7554 230.965L68.6096 231.485ZM85.0848 171.979C84.9567 171.699 84.839 171.103 84.7518 170.169C84.6668 169.258 84.6153 168.09 84.5872 166.714C84.5311 163.963 84.5689 160.416 84.6107 156.499L83.6107 156.488C83.569 160.399 83.5309 163.964 83.5874 166.735C83.6157 168.12 83.6678 169.316 83.7561 170.262C83.8423 171.185 83.9678 171.94 84.1752 172.395L85.0848 171.979ZM84.6107 156.499C84.6826 149.76 84.7664 141.936 84.397 135.282C84.2123 131.955 83.9137 128.906 83.4399 126.422C82.971 123.964 82.3152 121.969 81.3573 120.832L80.5927 121.477C81.3693 122.398 81.9908 124.163 82.4576 126.61C82.9194 129.03 83.2149 132.03 83.3985 135.338C83.7657 141.952 83.6828 149.741 83.6107 156.488L84.6107 156.499ZM81.4681 121.237C82.278 116.415 83.8584 108.627 85.965 100.949C88.0768 93.2522 90.6997 85.7347 93.5748 81.4055L92.7418 80.8522C89.7689 85.3286 87.1124 92.9875 85.0006 100.684C82.8837 108.399 81.2965 116.221 80.4819 121.072L81.4681 121.237ZM93.5748 81.4055C94.7253 79.6731 95.9253 76.31 97.133 71.9138C98.3471 67.4942 99.5861 61.963 100.794 55.8408C103.211 43.5953 105.509 28.959 107.24 16.0666L106.249 15.9334C104.519 28.8125 102.224 43.4276 99.8131 55.6472C98.6073 61.7577 97.3737 67.2624 96.1687 71.6489C94.9572 76.0587 93.7915 79.2717 92.7418 80.8522L93.5748 81.4055ZM106.745 15.5H22.5997V16.5H106.745V15.5ZM121.338 16.0378C122.558 32.1288 124.362 50.8817 127.547 67.7093C130.727 84.5097 135.299 99.491 142.111 107.959L142.89 107.332C136.249 99.0769 131.709 84.3217 128.529 67.5233C125.355 50.7521 123.554 32.0441 122.335 15.9622L121.338 16.0378ZM142.009 107.735C142.716 111.636 143.566 117.941 143.813 124.164C143.937 127.275 143.91 130.355 143.642 133.099C143.373 135.851 142.866 138.228 142.049 139.953L142.953 140.38C143.842 138.503 144.364 135.993 144.638 133.197C144.911 130.392 144.938 127.263 144.813 124.124C144.563 117.847 143.707 111.494 142.993 107.557L142.009 107.735ZM142.002 140.193C142.51 149.796 143.851 165.572 146.225 181.703C148.596 197.823 152.004 214.345 156.66 225.415L157.582 225.027C152.978 214.082 149.584 197.667 147.214 181.558C144.846 165.46 143.507 149.716 143 140.14L142.002 140.193ZM156.653 225.398C159.468 232.83 164.536 254.668 162.105 282.213L163.101 282.301C165.544 254.611 160.459 232.621 157.588 225.044L156.653 225.398ZM162.103 282.257V316.779H163.103V282.257H162.103ZM162.603 317.279H216.21V316.279H162.603V317.279ZM216.563 317.133C218.052 315.648 219.42 313.093 218.35 310.379C217.292 307.693 213.927 305.095 206.583 303.285L206.344 304.256C213.62 306.049 216.55 308.538 217.42 310.746C218.28 312.927 217.211 315.075 215.857 316.425L216.563 317.133ZM206.762 303.37C204.552 301.72 201.231 298.843 198.468 295.592C197.087 293.967 195.855 292.259 194.97 290.574C194.083 288.885 193.562 287.249 193.562 285.759H192.562C192.562 287.472 193.157 289.272 194.085 291.039C195.015 292.81 196.295 294.579 197.706 296.24C200.527 299.559 203.907 302.486 206.164 304.171L206.762 303.37ZM193.562 285.759C193.562 283.619 193.304 279.76 192.996 275.143L191.998 275.21C192.307 279.847 192.562 283.661 192.562 285.759H193.562ZM192.996 275.143C192.566 268.714 192.037 260.779 191.95 253.808C191.906 250.323 191.973 247.09 192.217 244.413C192.463 241.716 192.882 239.653 193.505 238.46L192.618 237.998C191.897 239.38 191.467 241.617 191.221 244.322C190.973 247.048 190.906 250.32 190.95 253.821C191.037 260.823 191.569 268.787 191.998 275.21L192.996 275.143ZM193.505 238.46C194.441 236.667 196.203 232.032 198.258 225.775C200.317 219.503 202.681 211.565 204.816 203.142C206.951 194.719 208.859 185.804 210.004 177.58C211.149 169.365 211.538 161.8 210.612 156.097L209.625 156.257C210.526 161.81 210.154 169.256 209.014 177.442C207.875 185.618 205.976 194.496 203.847 202.896C201.718 211.296 199.36 219.212 197.308 225.463C195.25 231.73 193.51 236.289 192.618 237.998L193.505 238.46ZM210.612 156.097C209.876 151.564 209.264 147.519 208.715 143.892L207.726 144.042C208.275 147.668 208.888 151.719 209.625 156.257L210.612 156.097ZM208.715 143.892C207.628 136.713 206.788 131.158 205.73 126.75C204.672 122.337 203.385 119.027 201.381 116.352L200.581 116.951C202.468 119.47 203.714 122.63 204.758 126.983C205.803 131.34 206.637 136.846 207.726 144.042L208.715 143.892ZM201.381 116.352C200.264 114.861 199.767 112.344 199.739 109.244C199.711 106.169 200.143 102.624 200.787 99.1695C201.431 95.7181 202.283 92.3742 203.087 89.7084C203.489 88.3755 203.878 87.2156 204.222 86.2989C204.57 85.3719 204.861 84.7225 205.063 84.3908L204.209 83.8708C203.954 84.2896 203.636 85.0161 203.286 85.9477C202.933 86.8896 202.537 88.071 202.13 89.4195C201.316 92.1165 200.455 95.4957 199.804 98.9862C199.154 102.474 198.71 106.089 198.739 109.253C198.768 112.391 199.261 115.19 200.581 116.951L201.381 116.352ZM205.063 84.3908C205.131 84.2793 205.175 84.1433 205.207 84.0252C205.242 83.8963 205.274 83.7417 205.305 83.5664C205.367 83.2153 205.427 82.7526 205.486 82.1907C205.604 81.0654 205.72 79.5124 205.832 77.5953C206.057 73.7593 206.27 68.4433 206.459 62.127C206.837 49.4934 207.12 32.8449 207.213 16.0028L206.213 15.9972C206.12 32.8329 205.837 49.4731 205.46 62.0971C205.271 68.4097 205.058 73.7147 204.834 77.5367C204.722 79.4485 204.607 80.9838 204.492 82.0865C204.434 82.6387 204.377 83.0751 204.321 83.3929C204.292 83.5522 204.266 83.6745 204.242 83.7633C204.215 83.8629 204.2 83.8853 204.209 83.8708L205.063 84.3908ZM206.713 15.5H121.837V16.5H206.713V15.5Z" fill="black"/>
</g>
<defs>
<filter id="filter0_f_625_1973" x="0.6" y="0.6" width="233.032" height="331.8" filterUnits="userSpaceOnUse" color-interpolation-filters="sRGB">
<feFlood flood-opacity="0" result="BackgroundImageFix"/>
<feBlend mode="normal" in="SourceGraphic" in2="BackgroundImageFix" result="shape"/>
<feGaussianBlur stdDeviation="7.45" result="effect1_foregroundBlur_625_1973"/>
</filter>
</defs>
</svg>
