<svg width="331" height="309" viewBox="0 0 331 309" fill="none" xmlns="http://www.w3.org/2000/svg">
<g filter="url(#filter0_f_625_1983)">
<path fill-rule="evenodd" clip-rule="evenodd" d="M45.185 28.8579C45.2652 24.5806 45.3461 20.265 45.4368 16H291.657C291.426 23.8579 290.698 30.002 289.716 31.9369C286.67 37.9407 287.279 76.4653 292.762 88.4729C297.148 98.0791 302.305 110.821 304.336 115.99C302.387 136.403 308.397 180.532 311.646 200.044C323.22 229.563 301.899 263.084 292.153 265.586C284.355 267.587 284.03 261.75 284.843 258.581C293.98 258.581 296.417 228.562 295.808 225.06C295.198 221.558 289.716 221.057 289.716 228.562C289.716 236.067 282.406 247.574 279.969 245.573C278.16 244.087 279.037 234.328 279.609 227.966V227.965L279.609 227.965C279.808 225.758 279.969 223.961 279.969 223.059C279.969 219.556 283.015 185.535 284.843 182.533C286.67 179.531 264.74 143.508 258.039 138.005C255.082 135.576 254.142 114.15 253.124 90.9664V90.9662C251.836 61.6105 250.424 29.4353 244.638 29.4353C234.282 29.4353 234.891 102.982 236.109 115.99C237.084 126.397 249.105 174.027 254.993 196.542C257.237 206.678 257.415 255.849 256.795 293H174.499C172.792 277.855 171.807 263.009 171.036 251.388C170.159 238.186 169.56 229.147 168.492 228.562C164.837 226.561 158.136 232.064 159.963 235.567C161.032 237.615 157.727 266.862 153.336 293H72.8932C73.2173 285.301 73.6703 277.735 74.0707 272.09C63.7149 240.57 81.9899 148.011 87.4724 148.011C92.9549 148.011 98.4374 78.4666 96.0007 64.4576C93.564 50.4487 87.4724 27.9344 84.4265 27.434C81.3807 26.9337 79.5532 50.4487 81.9899 56.4525C83.929 61.2304 79.3097 91.6736 76.1143 112.732C75.2944 118.136 74.5683 122.922 74.0707 126.497C72.6536 136.681 62.9945 152.45 55.1597 165.241L55.1596 165.241C49.5231 174.443 44.8307 182.104 44.8307 185.034C44.8307 190.638 48.0796 200.711 49.704 205.047V245.573C43.856 247.574 41.582 239.736 41.176 235.567C39.1082 224.526 38.3562 224.658 36.6863 224.951C36.3887 225.003 36.0618 225.06 35.6932 225.06C33.7439 225.06 34.881 238.735 35.6932 245.573C48.8512 263.585 44.8309 266.42 41.176 265.586C6.08817 253.978 15.185 207.049 24.1193 185.034C12.5452 116.491 35.0843 82.9694 41.176 82.9694C44.1709 82.9694 44.6627 56.7277 45.185 28.8579V28.8579Z" fill="black"/>
<path d="M45.4368 16V15.5H44.9473L44.9369 15.9894L45.4368 16ZM45.185 28.8579L44.685 28.8485V28.8579H45.185ZM291.657 16L292.157 16.0147L292.172 15.5H291.657V16ZM289.716 31.9369L290.162 32.1631L290.162 32.1631L289.716 31.9369ZM292.762 88.4729L293.217 88.2653L293.217 88.2653L292.762 88.4729ZM304.336 115.99L304.834 116.038L304.845 115.919L304.801 115.808L304.336 115.99ZM311.646 200.044L311.153 200.126L311.161 200.178L311.18 200.227L311.646 200.044ZM292.153 265.586L292.028 265.102L292.028 265.102L292.153 265.586ZM284.843 258.581V258.081H284.455L284.358 258.457L284.843 258.581ZM295.808 225.06L296.3 224.974L296.3 224.974L295.808 225.06ZM279.969 245.573L279.652 245.959L279.652 245.959L279.969 245.573ZM279.609 227.966L280.107 228.011L280.109 227.988V227.966H279.609ZM279.609 227.965L279.114 227.895L279.109 227.93V227.965H279.609ZM279.609 227.965L280.104 228.035L280.106 228.022L280.107 228.009L279.609 227.965ZM284.843 182.533L284.416 182.273L284.416 182.273L284.843 182.533ZM258.039 138.005L257.722 138.391L257.722 138.391L258.039 138.005ZM253.124 90.9664H252.624V90.9773L252.625 90.9883L253.124 90.9664ZM253.124 90.9662H253.624V90.9552L253.624 90.9442L253.124 90.9662ZM236.109 115.99L235.611 116.037L235.611 116.037L236.109 115.99ZM254.993 196.542L255.482 196.434L255.48 196.424L255.477 196.415L254.993 196.542ZM256.795 293V293.5H257.286L257.295 293.008L256.795 293ZM174.499 293L174.002 293.056L174.052 293.5H174.499V293ZM171.036 251.388L171.534 251.355L171.534 251.355L171.036 251.388ZM168.492 228.562L168.252 229.001L168.252 229.001L168.492 228.562ZM159.963 235.567L159.52 235.798L159.52 235.798L159.963 235.567ZM153.336 293V293.5H153.759L153.829 293.083L153.336 293ZM72.8932 293L72.3937 292.979L72.3718 293.5H72.8932V293ZM74.0707 272.09L74.5695 272.125L74.5764 272.027L74.5457 271.934L74.0707 272.09ZM96.0007 64.4576L96.4933 64.3719L96.4933 64.3719L96.0007 64.4576ZM84.4265 27.434L84.3455 27.9274L84.3455 27.9274L84.4265 27.434ZM81.9899 56.4525L82.4532 56.2645L82.4532 56.2645L81.9899 56.4525ZM76.1143 112.732L75.62 112.657L75.62 112.657L76.1143 112.732ZM74.0707 126.497L74.5659 126.566L74.5659 126.566L74.0707 126.497ZM55.1597 165.241L54.7333 164.98L54.7318 164.983L55.1597 165.241ZM55.1596 165.241L55.586 165.502L55.5876 165.5L55.1596 165.241ZM49.704 205.047H50.204V204.957L50.1723 204.872L49.704 205.047ZM49.704 245.573L49.8659 246.046L50.204 245.93V245.573H49.704ZM41.176 235.567L41.6736 235.518L41.6715 235.496L41.6674 235.475L41.176 235.567ZM36.6863 224.951L36.7726 225.443L36.7726 225.443L36.6863 224.951ZM35.6932 245.573L35.1967 245.632L35.2122 245.762L35.2895 245.868L35.6932 245.573ZM41.176 265.586L41.019 266.061L41.0416 266.068L41.0648 266.073L41.176 265.586ZM24.1193 185.034L24.5826 185.223L24.636 185.091L24.6123 184.951L24.1193 185.034ZM45.185 28.8579L45.685 28.8672V28.8579H45.185ZM44.9369 15.9894C44.8462 20.2551 44.7653 24.5713 44.6851 28.8485L45.6849 28.8672C45.7651 24.5899 45.846 20.2749 45.9367 16.0106L44.9369 15.9894ZM291.657 15.5H45.4368V16.5H291.657V15.5ZM290.162 32.1631C290.437 31.6208 290.677 30.8232 290.89 29.8412C291.104 28.8503 291.296 27.6391 291.464 26.2496C291.8 23.4701 292.041 19.9537 292.157 16.0147L291.157 15.9853C291.042 19.9042 290.803 23.3888 290.472 26.1296C290.306 27.5002 290.118 28.6789 289.912 29.6298C289.705 30.5896 289.486 31.2856 289.27 31.7107L290.162 32.1631ZM293.217 88.2653C291.877 85.3314 290.819 80.7312 290.04 75.3461C289.262 69.9735 288.768 63.8627 288.54 57.9343C288.312 52.0058 288.351 46.2692 288.635 41.6456C288.777 39.3334 288.981 37.3064 289.241 35.6764C289.504 34.0312 289.819 32.8392 290.162 32.1631L289.27 31.7107C288.852 32.5356 288.519 33.8608 288.254 35.5185C287.986 37.1914 287.78 39.2529 287.637 41.5843C287.35 46.2479 287.312 52.0186 287.541 57.9727C287.77 63.9269 288.266 70.0739 289.05 75.4893C289.832 80.8924 290.905 85.6107 292.307 88.6806L293.217 88.2653ZM304.801 115.808C302.77 110.635 297.608 97.8835 293.217 88.2653L292.307 88.6806C296.687 98.2747 301.841 111.006 303.871 116.173L304.801 115.808ZM312.139 199.962C310.516 190.214 308.203 174.314 306.539 158.303C304.874 142.279 303.864 126.189 304.834 116.038L303.838 115.943C302.858 126.205 303.879 142.385 305.544 158.407C307.211 174.441 309.527 190.361 311.153 200.126L312.139 199.962ZM292.277 266.07C293.594 265.732 295.058 264.886 296.579 263.65C298.105 262.409 299.717 260.752 301.327 258.754C304.548 254.758 307.789 249.369 310.357 243.137C315.489 230.68 317.961 214.78 312.111 199.862L311.18 200.227C316.905 214.827 314.503 230.447 309.432 242.756C306.898 248.907 303.705 254.212 300.549 258.127C298.971 260.085 297.408 261.688 295.948 262.874C294.482 264.065 293.148 264.814 292.028 265.102L292.277 266.07ZM284.358 258.457C283.94 260.089 283.784 262.502 284.839 264.278C285.38 265.187 286.229 265.911 287.471 266.262C288.698 266.61 290.276 266.584 292.277 266.07L292.028 265.102C290.131 265.589 288.744 265.583 287.743 265.3C286.756 265.021 286.113 264.463 285.699 263.767C284.846 262.332 284.933 260.242 285.327 258.706L284.358 258.457ZM295.315 225.146C295.382 225.53 295.413 226.337 295.386 227.495C295.36 228.638 295.28 230.087 295.138 231.732C294.854 235.023 294.324 239.083 293.491 243.031C292.657 246.985 291.526 250.795 290.054 253.604C288.563 256.449 286.823 258.081 284.843 258.081V259.081C287.431 259.081 289.423 256.962 290.939 254.068C292.475 251.139 293.628 247.225 294.469 243.237C295.312 239.242 295.848 235.141 296.134 231.818C296.278 230.157 296.36 228.686 296.386 227.517C296.412 226.363 296.386 225.466 296.3 224.974L295.315 225.146ZM290.216 228.562C290.216 224.893 291.547 223.456 292.659 223.167C293.785 222.876 295.054 223.642 295.315 225.146L296.3 224.974C295.953 222.976 294.176 221.741 292.408 222.199C290.626 222.662 289.216 224.727 289.216 228.562H290.216ZM279.652 245.959C280.122 246.346 280.693 246.375 281.239 246.201C281.768 246.033 282.315 245.667 282.853 245.188C283.934 244.226 285.106 242.694 286.186 240.889C288.34 237.287 290.216 232.443 290.216 228.562H289.216C289.216 232.186 287.437 236.848 285.327 240.376C284.274 242.136 283.163 243.574 282.188 244.441C281.697 244.878 281.273 245.141 280.936 245.248C280.616 245.35 280.425 245.301 280.287 245.187L279.652 245.959ZM279.111 227.921C278.826 231.098 278.462 235.147 278.397 238.589C278.364 240.308 278.406 241.895 278.574 243.156C278.658 243.786 278.776 244.351 278.939 244.817C279.1 245.273 279.322 245.689 279.652 245.959L280.287 245.187C280.164 245.086 280.019 244.872 279.883 244.485C279.75 244.108 279.644 243.617 279.565 243.024C279.407 241.838 279.364 240.309 279.396 238.607C279.461 235.208 279.821 231.196 280.107 228.011L279.111 227.921ZM279.109 227.965V227.966H280.109V227.965H279.109ZM279.114 227.894L279.114 227.895L280.104 228.036L280.104 228.035L279.114 227.894ZM279.469 223.059C279.469 223.932 279.311 225.699 279.111 227.92L280.107 228.009C280.304 225.818 280.469 223.989 280.469 223.059H279.469ZM284.416 182.273C284.266 182.519 284.132 182.881 284.007 183.302C283.879 183.735 283.75 184.27 283.619 184.889C283.358 186.128 283.087 187.728 282.816 189.566C282.272 193.242 281.719 197.893 281.223 202.555C280.235 211.865 279.469 221.275 279.469 223.059H280.469C280.469 221.34 281.227 211.989 282.218 202.661C282.713 198.005 283.264 193.369 283.805 189.712C284.075 187.883 284.343 186.306 284.598 185.096C284.725 184.49 284.849 183.983 284.966 183.586C285.087 183.178 285.191 182.922 285.27 182.793L284.416 182.273ZM257.722 138.391C259.337 139.717 261.928 142.944 264.903 147.15C267.864 151.337 271.17 156.439 274.211 161.466C277.253 166.493 280.024 171.436 281.919 175.303C282.867 177.238 283.59 178.891 284.017 180.145C284.232 180.773 284.366 181.284 284.422 181.67C284.449 181.863 284.455 182.01 284.447 182.119C284.443 182.172 284.436 182.21 284.429 182.237C284.421 182.263 284.415 182.273 284.416 182.273L285.27 182.793C285.482 182.443 285.475 181.969 285.411 181.527C285.343 181.053 285.187 180.477 284.964 179.822C284.516 178.509 283.772 176.813 282.817 174.863C280.904 170.959 278.117 165.989 275.067 160.948C272.016 155.906 268.697 150.783 265.719 146.573C262.756 142.383 260.092 139.043 258.357 137.618L257.722 138.391ZM252.625 90.9883C253.134 102.577 253.623 113.741 254.356 122.311C254.723 126.595 255.151 130.246 255.676 132.985C255.938 134.353 256.227 135.508 256.55 136.406C256.866 137.283 257.241 137.996 257.722 138.391L258.357 137.618C258.098 137.406 257.797 136.918 257.491 136.068C257.193 135.239 256.916 134.141 256.658 132.796C256.143 130.11 255.718 126.5 255.353 122.226C254.622 113.681 254.133 102.54 253.624 90.9444L252.625 90.9883ZM252.624 90.9662V90.9664H253.624V90.9662H252.624ZM244.638 29.9353C245.101 29.9353 245.624 30.2543 246.189 31.1431C246.744 32.0187 247.263 33.3348 247.742 35.0553C248.696 38.4887 249.452 43.394 250.07 49.2449C251.306 60.9395 251.98 76.3049 252.625 90.9881L253.624 90.9442C252.98 76.2718 252.304 60.8717 251.065 49.1398C250.446 43.2775 249.683 38.3042 248.705 34.7874C248.217 33.0328 247.667 31.6059 247.033 30.6072C246.407 29.6218 245.621 28.9353 244.638 28.9353V29.9353ZM236.607 115.944C236.001 109.472 235.543 87.859 236.533 67.8595C237.027 57.8597 237.882 48.2883 239.256 41.2257C239.943 37.6898 240.755 34.8153 241.699 32.8363C242.172 31.8465 242.664 31.1091 243.168 30.625C243.667 30.1465 244.153 29.9353 244.638 29.9353V28.9353C243.828 28.9353 243.105 29.2987 242.476 29.9039C241.851 30.5035 241.296 31.3589 240.797 32.4055C239.797 34.4995 238.967 37.4725 238.274 41.0348C236.887 48.1688 236.029 57.7971 235.534 67.8101C234.543 87.8361 234.999 109.501 235.611 116.037L236.607 115.944ZM255.477 196.415C252.533 185.16 248.057 167.627 244.195 151.609C240.327 135.568 237.09 121.102 236.607 115.944L235.611 116.037C236.103 121.285 239.364 135.838 243.223 151.843C247.087 167.87 251.565 185.409 254.51 196.668L255.477 196.415ZM257.295 293.008C257.605 274.429 257.715 252.844 257.468 234.634C257.344 225.529 257.131 217.265 256.808 210.641C256.486 204.032 256.053 199.016 255.482 196.434L254.505 196.65C255.056 199.136 255.487 204.067 255.809 210.69C256.131 217.297 256.345 225.548 256.468 234.647C256.715 252.845 256.605 274.42 256.295 292.992L257.295 293.008ZM174.499 293.5H256.795V292.5H174.499V293.5ZM170.537 251.421C171.308 263.041 172.294 277.898 174.002 293.056L174.996 292.944C173.29 277.812 172.306 262.977 171.534 251.355L170.537 251.421ZM168.252 229.001C168.211 228.978 168.22 228.966 168.262 229.034C168.301 229.096 168.349 229.195 168.402 229.341C168.509 229.633 168.618 230.056 168.726 230.614C168.941 231.726 169.142 233.304 169.338 235.293C169.73 239.266 170.098 244.817 170.537 251.421L171.534 251.355C171.097 244.757 170.727 239.188 170.333 235.194C170.136 233.2 169.932 231.583 169.707 230.424C169.595 229.846 169.475 229.363 169.341 228.998C169.275 228.815 169.199 228.647 169.111 228.505C169.027 228.37 168.906 228.219 168.732 228.124L168.252 229.001ZM160.407 235.335C160.041 234.634 160.081 233.8 160.469 232.914C160.858 232.025 161.582 231.132 162.489 230.387C163.394 229.643 164.454 229.072 165.486 228.804C166.52 228.535 167.484 228.58 168.252 229.001L168.732 228.124C167.672 227.543 166.428 227.526 165.235 227.836C164.04 228.146 162.853 228.794 161.854 229.614C160.857 230.433 160.02 231.447 159.553 232.513C159.085 233.581 158.972 234.748 159.52 235.798L160.407 235.335ZM153.829 293.083C156.026 280.005 157.951 266.15 159.194 255.306C159.815 249.885 160.266 245.212 160.495 241.762C160.61 240.038 160.669 238.613 160.666 237.549C160.664 237.018 160.647 236.568 160.611 236.212C160.578 235.88 160.523 235.558 160.407 235.335L159.52 235.798C159.52 235.798 159.522 235.801 159.524 235.807C159.527 235.814 159.53 235.823 159.535 235.836C159.543 235.862 159.552 235.897 159.562 235.942C159.582 236.035 159.6 236.157 159.616 236.312C159.647 236.622 159.664 237.036 159.666 237.552C159.669 238.582 159.611 239.981 159.497 241.696C159.27 245.123 158.821 249.779 158.2 255.193C156.96 266.019 155.037 279.857 152.843 292.917L153.829 293.083ZM72.8932 293.5H153.336V292.5H72.8932V293.5ZM73.572 272.055C73.1713 277.704 72.7179 285.275 72.3937 292.979L73.3928 293.021C73.7166 285.327 74.1694 277.766 74.5695 272.125L73.572 272.055ZM87.4724 147.511C87.1231 147.511 86.8238 147.693 86.5871 147.906C86.3445 148.125 86.11 148.429 85.8817 148.791C85.4237 149.517 84.9377 150.562 84.4315 151.869C83.4165 154.489 82.2876 158.25 81.1245 162.843C78.7969 172.033 76.3191 184.605 74.3374 198.158C72.3557 211.711 70.8684 226.257 70.5251 239.392C70.1821 252.512 70.9785 264.28 73.5957 272.246L74.5457 271.934C71.9851 264.14 71.1823 252.518 71.5247 239.418C71.8667 226.334 73.349 211.829 75.3269 198.303C77.3048 184.776 79.7765 172.238 82.0938 163.088C83.2531 158.511 84.3705 154.795 85.3639 152.23C85.8618 150.945 86.3205 149.97 86.7275 149.325C86.9317 149.001 87.1098 148.782 87.2572 148.648C87.4106 148.51 87.479 148.511 87.4724 148.511V147.511ZM95.5081 64.5433C96.1072 67.9879 96.2245 74.9114 95.9673 83.4077C95.7107 91.8861 95.0832 101.882 94.2083 111.442C93.3332 121.004 92.2118 130.118 90.9689 136.835C90.3468 140.197 89.6978 142.938 89.0405 144.831C88.7107 145.781 88.3882 146.489 88.082 146.95C87.7545 147.443 87.5425 147.511 87.4724 147.511V148.511C88.0876 148.511 88.5608 148.036 88.9149 147.503C89.29 146.939 89.6451 146.138 89.9852 145.159C90.6676 143.194 91.3274 140.393 91.9522 137.017C93.203 130.256 94.3279 121.108 95.2041 111.533C96.0806 101.956 96.7095 91.9392 96.9669 83.438C97.2237 74.9547 97.1125 67.9319 96.4933 64.3719L95.5081 64.5433ZM84.3455 27.9274C84.3994 27.9363 84.5149 27.9821 84.6929 28.1461C84.8659 28.3055 85.0637 28.5449 85.283 28.8722C85.7212 29.5263 86.2045 30.4697 86.7184 31.6584C87.7443 34.0316 88.8608 37.3087 89.9627 41.0223C92.1656 48.4464 94.2932 57.5583 95.5081 64.5433L96.4933 64.3719C95.2716 57.348 93.135 48.1983 90.9214 40.7379C89.8151 37.0093 88.6853 33.6884 87.6363 31.2616C87.1127 30.0504 86.6013 29.0434 86.1138 28.3157C85.8703 27.9521 85.6225 27.6429 85.3705 27.4106C85.1235 27.183 84.8344 26.9943 84.5076 26.9406L84.3455 27.9274ZM82.4532 56.2645C81.8797 54.8514 81.5376 52.3336 81.4139 49.2948C81.2911 46.2772 81.3855 42.8112 81.6506 39.5447C81.9161 36.2748 82.351 33.2253 82.903 31.035C83.1804 29.9346 83.4795 29.0834 83.7846 28.5336C83.9378 28.2575 84.0754 28.0892 84.1856 27.9997C84.2869 27.9175 84.3324 27.9253 84.3455 27.9274L84.5076 26.9406C84.14 26.8803 83.8143 27.0131 83.5553 27.2233C83.3053 27.4263 83.0937 27.7177 82.9102 28.0484C82.5419 28.7123 82.2176 29.663 81.9334 30.7906C81.3623 33.0563 80.9215 36.167 80.6539 39.4638C80.386 42.764 80.29 46.2711 80.4147 49.3355C80.5386 52.3788 80.8818 55.0518 81.5266 56.6406L82.4532 56.2645ZM76.6086 112.807C78.2061 102.28 80.161 89.3965 81.4739 78.5472C82.1303 73.1233 82.6273 68.1991 82.8385 64.3278C82.9441 62.3927 82.9787 60.7119 82.9248 59.3589C82.8716 58.0245 82.7311 56.9492 82.4532 56.2645L81.5266 56.6406C81.7335 57.1503 81.8727 58.0715 81.9256 59.3987C81.9778 60.7074 81.9447 62.3534 81.84 64.2733C81.6306 68.1119 81.1366 73.0106 80.4811 78.4271C79.1704 89.2585 77.2179 102.126 75.62 112.657L76.6086 112.807ZM74.5659 126.566C75.063 122.994 75.7886 118.212 76.6086 112.807L75.62 112.657C74.8003 118.06 74.0736 122.849 73.5755 126.428L74.5659 126.566ZM55.5861 165.502C59.5017 159.11 63.8843 151.955 67.4647 145.124C71.0383 138.305 73.8445 131.751 74.5659 126.566L73.5755 126.428C72.8798 131.428 70.1479 137.85 66.579 144.66C63.0169 151.456 58.6525 158.582 54.7334 164.98L55.5861 165.502ZM55.5876 165.5L55.5877 165.5L54.7318 164.983L54.7317 164.983L55.5876 165.5ZM45.3307 185.034C45.3307 184.407 45.5892 183.457 46.1139 182.191C46.6319 180.941 47.3849 179.439 48.3201 177.73C50.1906 174.311 52.7654 170.107 55.586 165.502L54.7332 164.98C51.9173 169.577 49.3277 173.805 47.4428 177.25C46.5004 178.972 45.728 180.51 45.1901 181.808C44.6588 183.09 44.3307 184.196 44.3307 185.034H45.3307ZM50.1723 204.872C49.3649 202.717 48.1516 199.13 47.1409 195.386C46.1268 191.63 45.3307 187.765 45.3307 185.034H44.3307C44.3307 187.907 45.159 191.881 46.1755 195.646C47.1954 199.424 48.4188 203.042 49.2358 205.223L50.1723 204.872ZM50.204 245.573V205.047H49.204V245.573H50.204ZM40.6783 235.615C40.8851 237.739 41.5675 240.823 42.9715 243.143C43.6755 244.306 44.5828 245.312 45.7387 245.888C46.9107 246.471 48.2889 246.586 49.8659 246.046L49.5422 245.1C48.1952 245.561 47.0961 245.446 46.1843 244.993C45.2564 244.531 44.4733 243.693 43.827 242.625C42.5305 240.483 41.8729 237.564 41.6736 235.518L40.6783 235.615ZM36.7726 225.443C37.2226 225.364 37.4442 225.338 37.6353 225.405C37.7951 225.461 38.0319 225.627 38.3347 226.232C38.9523 227.468 39.647 230.119 40.6845 235.659L41.6674 235.475C40.6372 229.974 39.922 227.171 39.2291 225.785C38.8767 225.08 38.4832 224.644 37.9677 224.462C37.4836 224.291 36.985 224.391 36.6 224.458L36.7726 225.443ZM35.6932 225.56C36.111 225.56 36.4778 225.495 36.7726 225.443L36.6 224.458C36.2995 224.511 36.0127 224.56 35.6932 224.56V225.56ZM36.1897 245.514C35.7845 242.103 35.2988 236.99 35.1574 232.736C35.0865 230.605 35.1028 228.711 35.2535 227.359C35.3295 226.678 35.436 226.17 35.5649 225.846C35.713 225.473 35.7938 225.56 35.6932 225.56V224.56C35.1053 224.56 34.7952 225.075 34.6356 225.476C34.4567 225.927 34.3386 226.541 34.2597 227.248C34.1008 228.674 34.0866 230.626 34.1579 232.769C34.3007 237.062 34.7897 242.206 35.1967 245.632L36.1897 245.514ZM41.0648 266.073C42.0355 266.295 43.1297 266.299 43.9773 265.767C44.8677 265.208 45.3372 264.158 45.2384 262.615C45.1406 261.087 44.489 258.999 43.0606 256.189C41.628 253.372 39.3958 249.794 36.097 245.278L35.2895 245.868C38.5696 250.358 40.7691 253.889 42.1692 256.643C43.5735 259.404 44.1554 261.35 44.2405 262.678C44.3244 263.99 43.926 264.619 43.4458 264.92C42.9228 265.248 42.1439 265.294 41.2872 265.098L41.0648 266.073ZM23.656 184.846C19.1715 195.896 14.6391 213.209 15.6403 229.244C16.6425 245.294 23.2085 260.169 41.019 266.061L41.333 265.111C24.0556 259.396 17.6262 245.002 16.6384 229.181C15.6496 213.345 20.1327 196.187 24.5826 185.223L23.656 184.846ZM41.176 82.4694C40.2191 82.4694 39.0801 83.105 37.8864 84.1707C36.6683 85.2582 35.3064 86.8719 33.8964 89.0022C31.0747 93.2654 28.0289 99.6455 25.543 108.158C20.5699 125.187 17.8282 150.78 23.6263 185.118L24.6123 184.951C18.8363 150.745 21.5771 125.306 26.5029 108.438C28.9665 100.002 31.9743 93.7181 34.7303 89.5541C36.1092 87.4708 37.4171 85.9301 38.5524 84.9167C39.7121 83.8814 40.6099 83.4694 41.176 83.4694V82.4694ZM44.6851 28.8485C44.4239 42.787 44.1705 56.3041 43.6085 66.3369C43.3274 71.3558 42.9699 75.4848 42.499 78.3527C42.2629 79.7911 42.0026 80.8835 41.7209 81.6057C41.5792 81.9689 41.4441 82.2065 41.327 82.3451C41.2702 82.4123 41.2274 82.4444 41.2023 82.4587C41.1904 82.4655 41.1831 82.4679 41.1802 82.4687C41.1775 82.4694 41.1765 82.4694 41.176 82.4694V83.4694C41.5656 83.4694 41.8701 83.2516 42.0906 82.9907C42.31 82.7313 42.4931 82.3779 42.6525 81.9691C42.973 81.1474 43.2465 79.972 43.4858 78.5147C43.9658 75.5913 44.3254 71.418 44.6069 66.3928C45.1702 56.3372 45.4238 42.7986 45.6849 28.8672L44.6851 28.8485ZM44.685 28.8579V28.8579H45.685V28.8579H44.685Z" fill="black"/>
</g>
<defs>
<filter id="filter0_f_625_1983" x="0.6" y="0.6" width="329.8" height="307.8" filterUnits="userSpaceOnUse" color-interpolation-filters="sRGB">
<feFlood flood-opacity="0" result="BackgroundImageFix"/>
<feBlend mode="normal" in="SourceGraphic" in2="BackgroundImageFix" result="shape"/>
<feGaussianBlur stdDeviation="7.45" result="effect1_foregroundBlur_625_1983"/>
</filter>
</defs>
</svg>
