<svg width="278" height="221" viewBox="0 0 278 221" fill="none" xmlns="http://www.w3.org/2000/svg">
<g filter="url(#filter0_f_625_1986)">
<path fill-rule="evenodd" clip-rule="evenodd" d="M262.16 205C262.112 189.111 260.137 169.392 254.66 161.895C245.523 149.388 196.181 132.877 179.733 127.374L179.733 127.373C163.665 121.997 162.713 110.89 162.109 103.85C162.102 103.763 162.095 103.677 162.087 103.592C162.081 103.513 162.074 103.435 162.067 103.358C161.746 99.6616 164.478 96.2438 167.399 92.5899C170.013 89.3201 172.778 85.8612 173.641 81.8444C175.469 73.339 177.296 44.8208 173.641 40.318C172.852 39.3458 171.779 37.7906 170.502 35.9394L170.502 35.9392C165.863 29.2159 158.53 18.5882 152.32 17.8036C150.992 17.6358 149.664 17.4258 148.293 17.2089C141.488 16.1328 133.622 14.8887 119.425 17.8036C111.1 21.1391 95.0588 33.7137 97.4955 57.3288C99.9321 80.9439 108.257 97.8546 112.115 103.358C114.349 108.695 115.892 120.969 104.196 127.373C98.359 130.57 84.8499 134.723 70.2993 139.196L70.2992 139.196C48.4068 145.927 24.1567 153.383 20.1313 159.394C17.4693 163.369 16.5378 182.9 16 205H262.16Z" fill="black"/>
<path d="M262.16 205V205.5H262.662L262.66 204.998L262.16 205ZM254.66 161.895L254.257 162.19L254.257 162.19L254.66 161.895ZM179.733 127.374L179.892 126.899L179.891 126.899L179.733 127.374ZM179.733 127.373L179.574 127.848L179.575 127.848L179.733 127.373ZM162.109 103.85L161.611 103.892L161.611 103.892L162.109 103.85ZM162.087 103.592L161.589 103.635L161.589 103.635L162.087 103.592ZM162.067 103.358L162.565 103.315L162.565 103.315L162.067 103.358ZM167.399 92.5899L167.79 92.9021L167.79 92.9021L167.399 92.5899ZM173.641 81.8444L173.152 81.7394L173.152 81.7394L173.641 81.8444ZM173.641 40.318L174.03 40.0029L174.03 40.0029L173.641 40.318ZM170.502 35.9394L170.076 36.2014L170.083 36.2126L170.09 36.2234L170.502 35.9394ZM170.502 35.9392L170.928 35.6771L170.921 35.666L170.913 35.6552L170.502 35.9392ZM152.32 17.8036L152.383 17.3076L152.383 17.3076L152.32 17.8036ZM148.293 17.2089L148.215 17.7028L148.215 17.7028L148.293 17.2089ZM119.425 17.8036L119.325 17.3138L119.281 17.3228L119.24 17.3395L119.425 17.8036ZM97.4955 57.3288L97.9928 57.2775L97.4955 57.3288ZM112.115 103.358L112.577 103.165L112.556 103.115L112.525 103.071L112.115 103.358ZM104.196 127.373L104.436 127.812L104.436 127.812L104.196 127.373ZM70.2993 139.196L70.4078 139.685L70.4272 139.68L70.4462 139.674L70.2993 139.196ZM70.2992 139.196L70.1907 138.708L70.1713 138.713L70.1522 138.719L70.2992 139.196ZM20.1313 159.394L19.7159 159.116L19.7159 159.116L20.1313 159.394ZM16 205L15.5001 204.988L15.4877 205.5H16V205ZM262.66 204.998C262.636 197.037 262.13 188.109 260.941 180.226C259.756 172.371 257.881 165.457 255.064 161.6L254.257 162.19C256.916 165.831 258.768 172.524 259.952 180.375C261.132 188.197 261.636 197.074 261.66 205.002L262.66 204.998ZM255.064 161.6C252.709 158.376 247.822 154.954 241.652 151.56C235.461 148.155 227.903 144.738 220.128 141.545C204.577 135.159 188.115 129.651 179.892 126.899L179.574 127.848C187.799 130.6 204.232 136.098 219.748 142.47C227.507 145.657 235.026 149.057 241.17 152.437C247.336 155.828 252.044 159.161 254.257 162.19L255.064 161.6ZM179.891 126.899L179.891 126.899L179.575 127.848L179.575 127.848L179.891 126.899ZM179.892 126.899C171.964 124.247 167.817 120.203 165.562 115.999C163.295 111.773 162.91 107.334 162.608 103.807L161.611 103.892C161.912 107.406 162.304 112.041 164.681 116.472C167.07 120.926 171.434 125.124 179.574 127.848L179.892 126.899ZM162.608 103.807C162.6 103.72 162.593 103.634 162.585 103.549L161.589 103.635C161.597 103.72 161.604 103.806 161.611 103.892L162.608 103.807ZM162.585 103.549C162.579 103.47 162.572 103.392 162.565 103.315L161.569 103.401C161.576 103.479 161.582 103.556 161.589 103.635L162.585 103.549ZM162.565 103.315C162.417 101.607 162.97 99.9327 163.952 98.2051C164.937 96.4728 166.323 94.7369 167.79 92.9021L167.009 92.2777C165.554 94.0968 164.114 95.8967 163.082 97.7109C162.048 99.5299 161.396 101.413 161.569 103.401L162.565 103.315ZM167.79 92.9021C170.386 89.6539 173.238 86.1024 174.13 81.9495L173.152 81.7394C172.319 85.62 169.64 88.9863 167.009 92.2777L167.79 92.9021ZM174.13 81.9495C175.053 77.6524 175.968 68.3609 176.197 59.5933C176.312 55.2058 176.255 50.9315 175.938 47.4646C175.78 45.7317 175.556 44.1888 175.252 42.9289C174.951 41.6846 174.559 40.6556 174.03 40.0029L173.253 40.6331C173.637 41.106 173.987 41.9532 174.28 43.1636C174.568 44.3584 174.786 45.8487 174.942 47.5555C175.254 50.9679 175.311 55.1991 175.197 59.5672C174.969 68.3108 174.057 77.5311 173.152 81.7394L174.13 81.9495ZM174.03 40.0029C173.256 39.0497 172.196 37.5146 170.913 35.6554L170.09 36.2234C171.362 38.0666 172.449 39.6419 173.253 40.6331L174.03 40.0029ZM170.928 35.6774L170.928 35.6771L170.076 36.2012L170.076 36.2014L170.928 35.6774ZM170.913 35.6552C168.597 32.2981 165.587 27.9347 162.374 24.3126C160.767 22.501 159.098 20.8613 157.426 19.6213C155.76 18.385 154.056 17.519 152.383 17.3076L152.258 18.2997C153.689 18.4806 155.231 19.2372 156.831 20.4244C158.426 21.6078 160.044 23.1924 161.626 24.9762C164.792 28.5449 167.768 32.857 170.09 36.2231L170.913 35.6552ZM152.383 17.3076C151.064 17.1409 149.744 16.9321 148.371 16.7151L148.215 17.7028C149.585 17.9194 150.921 18.1307 152.258 18.2997L152.383 17.3076ZM148.371 16.7151C141.537 15.6343 133.604 14.382 119.325 17.3138L119.526 18.2934C133.639 15.3955 141.439 16.6312 148.215 17.7028L148.371 16.7151ZM119.24 17.3395C110.778 20.7296 94.5316 33.4755 96.9981 57.3801L97.9928 57.2775C95.5861 33.952 111.423 21.5485 119.611 18.2678L119.24 17.3395ZM96.9981 57.3801C99.443 81.0747 107.796 98.0677 111.706 103.645L112.525 103.071C108.719 97.6416 100.421 80.813 97.9928 57.2775L96.9981 57.3801ZM111.654 103.551C112.741 106.149 113.665 110.454 112.887 114.879C112.114 119.281 109.658 123.813 103.956 126.935L104.436 127.812C110.431 124.53 113.051 119.723 113.872 115.052C114.688 110.405 113.723 105.904 112.577 103.165L111.654 103.551ZM103.956 126.935C101.081 128.509 96.2837 130.334 90.3556 132.332C84.4375 134.327 77.4295 136.481 70.1524 138.719L70.4462 139.674C77.7196 137.438 84.7415 135.279 90.675 133.28C96.5984 131.284 101.474 129.434 104.436 127.812L103.956 126.935ZM70.1908 138.708L70.1907 138.708L70.4076 139.685L70.4078 139.685L70.1908 138.708ZM70.1522 138.719C59.2101 142.083 47.6595 145.634 38.341 149.096C33.6821 150.827 29.5675 152.542 26.3595 154.205C23.1773 155.854 20.8002 157.496 19.7159 159.116L20.5468 159.672C21.4752 158.286 23.6388 156.742 26.8198 155.092C29.9749 153.457 34.0459 151.759 38.6893 150.034C47.9753 146.583 59.4958 143.041 70.4461 139.674L70.1522 138.719ZM19.7159 159.116C19.3412 159.675 19.0183 160.472 18.7318 161.447C18.4432 162.43 18.1825 163.626 17.9456 165.004C17.4717 167.762 17.0875 171.284 16.7705 175.362C16.1366 183.518 15.769 193.937 15.5001 204.988L16.4999 205.012C16.7687 193.963 17.1358 183.567 17.7675 175.439C18.0835 171.374 18.4649 167.887 18.9311 165.174C19.1643 163.817 19.4173 162.662 19.6913 161.729C19.9674 160.789 20.256 160.106 20.5468 159.672L19.7159 159.116ZM16 205.5H262.16V204.5H16V205.5Z" fill="black"/>
</g>
<defs>
<filter id="filter0_f_625_1986" x="0.587671" y="0.6" width="276.974" height="219.8" filterUnits="userSpaceOnUse" color-interpolation-filters="sRGB">
<feFlood flood-opacity="0" result="BackgroundImageFix"/>
<feBlend mode="normal" in="SourceGraphic" in2="BackgroundImageFix" result="shape"/>
<feGaussianBlur stdDeviation="7.45" result="effect1_foregroundBlur_625_1986"/>
</filter>
</defs>
</svg>
