<svg width="1805" height="889" viewBox="0 0 1805 889" fill="none" xmlns="http://www.w3.org/2000/svg">
<path d="M158.373 66.3605C161.189 144.591 163.714 220.629 189.399 295.951C240.785 446.64 354.498 587.763 507.856 643.218C540.505 655.024 574.88 664.382 609.577 665.601C650.008 667.022 745.608 653.615 762.046 597.344C782.269 528.118 696.817 451.751 655.229 424.487C586.733 379.581 479.352 348.14 396.385 351.354C311.784 354.632 243.584 413.123 320.372 486.76C408.384 571.16 589.754 603.707 692.238 527.536C756.796 479.554 786.943 379.62 780.218 302.156C772.865 217.46 688.401 184.655 616.668 219.273C562.878 245.232 530.98 305.079 533.342 363.543C538.467 490.4 662.286 579.547 782.656 580.502C822.415 580.817 862.863 574.301 900.332 561C947.031 544.423 1031.53 491.301 1001.39 451.967C967.873 408.228 832.448 421.908 802.38 427.146C762.852 434.031 679.025 464.083 703.54 495.846C717.701 514.193 744.408 518.928 766.921 524.434C837.529 541.702 909.149 537.203 979.891 524.212C1058.56 509.767 1115.68 487.08 1186.88 452.188C1225.83 433.099 1284.58 403.122 1314.97 366.867C1355.2 318.878 1294.37 298.909 1255.8 295.508C1167.39 287.711 1050.53 312.096 980.556 369.97C937.761 405.362 936.514 448.764 985.432 478.782C1083.9 539.204 1226.3 513.716 1328.04 478.117C1355.76 468.422 1384.62 459.173 1408.27 441.772C1454.86 407.481 1423.56 381.272 1379.9 370.413C1300.99 350.785 1176.54 359.392 1101.11 374.845C1067.21 381.791 937.756 415.923 909.197 465.263C870.075 532.853 1083.25 525.551 1083.61 525.542C1141.67 523.988 1189.89 518.675 1243.61 496.954C1261.72 489.632 1315.17 467.166 1313.2 433.794C1309.63 373.519 1171.48 360.916 1136.57 357.116C1028.52 345.354 910.654 369.724 820.109 432.021C774.768 463.216 752.727 506.079 785.537 555.681C845.728 646.679 991.189 651.831 1087.15 644.548C1119.04 642.128 1151.8 639.929 1181.78 628.813C1225.04 612.776 1247.64 576.598 1189.32 549.476C1103.88 509.745 963.674 510.578 878.614 523.769C765.113 541.371 636.756 587.547 543.093 657.18C494.151 693.565 405.571 791.546 484.144 848.432C529.262 881.097 598.518 885.148 649.688 886.106C731.016 887.627 795.037 881.615 870.193 847.988C954.867 810.103 1040.37 732.016 1061.22 637.235C1086.87 520.663 959.859 503.498 877.728 510.472C791.944 517.757 691.501 540.811 622.208 595.128C588.409 621.623 551.864 660.695 562.151 709.702C575.844 774.93 638.203 787.941 695.119 794.137C840.988 810.015 1009.82 765.577 1128.59 678.898C1160.28 655.776 1235.75 583.934 1211.92 525.985C1193.13 480.294 1108.51 477.055 1075.41 478.56C1013.63 481.368 937.171 503.464 886.371 540.612C860.767 559.334 805.137 620.62 841.827 653.856C863.911 673.861 909.309 673.326 936.677 674.909C938.997 675.043 1032.25 677.495 999.615 652.748C952.712 617.184 873.209 612.157 818.557 609.976C756.804 607.512 700.679 610.69 640.602 625.489C623.876 629.61 552.981 645.23 547.303 680.006C534.402 759.027 765.379 747.299 776.672 746.711C874.795 741.608 1004.31 716.533 1094.91 675.795C1147.39 652.198 1225.9 600.736 1247.38 538.839C1277.2 452.909 1180.45 401.955 1119.29 380.164C966.156 325.605 805.023 346.151 655.007 399.666C572.541 429.084 482.641 467.936 430.07 542.385C393.064 594.792 352.89 692.744 423.422 737.404C492.456 781.115 599.295 789.766 677.612 782.391C751.965 775.389 806.324 759.211 868.863 717.237C900.736 695.846 979.921 641.188 952.633 581.832C939.5 553.265 910.275 531.691 880.83 520.666C772.075 479.946 599.407 487.691 492.565 503.381C347.177 524.73 -33.6128 640.426 99.4242 702.832C129.37 716.88 163.493 719.578 196.047 725.437C278.54 740.282 354.191 747.247 438.048 746.933C520.959 746.622 580.741 740.082 661.434 722.556C721.671 709.472 779.353 695.27 830.746 659.618C881.022 624.74 918.595 560.734 896.787 497.619C866.086 408.767 744.66 376.911 664.093 364.651C603.856 355.485 519.008 346.933 464.199 382.38C385.08 433.549 458.163 515.251 515.391 540.833C587.555 573.092 689.174 584.091 759.83 539.282C873.784 467.014 851.934 312.888 765.592 229.911C645.477 114.475 444.375 170.466 366.467 305.259C345.725 341.147 333.775 392.941 356.495 431.578C386.514 482.629 477.653 506.088 531.126 512.245C587.502 518.736 635.575 497.313 653.677 439.556C704.242 278.232 495.959 217.478 379.321 208.857C268.701 200.682 105.604 216.247 24.9623 307.918C-74.4044 420.876 177.6 472.072 231.949 482.549C337.735 502.943 448.917 507.33 556.168 499.17C636.736 493.04 773.751 482.348 778.667 372.851C782.486 287.787 704.19 245.768 633.954 222.819C575.925 203.859 462.797 187.987 402.147 184.258C349.811 181.041 271.851 182.246 219.538 197.555C174.739 210.665 68.0761 257.826 86.7922 325.204C102.471 381.649 183.31 405.153 225.3 418.06C303.171 441.996 387.217 454.713 468.852 447.091C533.368 441.068 645.019 408.933 627.749 317.226C610.544 225.87 491.366 189.779 413.228 195.339C365.769 198.716 304.757 214.528 278.93 259.164C237.963 329.965 311.961 387.928 368.905 411.855C479.423 458.291 610.671 479.148 729.247 488.754C879.266 500.908 1030.68 478.671 1147.21 375.289C1188.31 338.824 1237.59 272.502 1216.35 212.846C1203.68 177.244 1177.38 163.349 1142.78 153.898C1123.24 148.56 1071.65 138.368 1054.8 165.421C1022.52 217.219 1123.09 295.459 1151.64 316.783C1180.31 338.191 1268.86 397.704 1307.66 356.673C1330.62 332.387 1333.45 290.555 1319.62 261.601C1292.81 205.43 1219.97 182.262 1162.28 183.372C1037.89 185.764 1015.06 359.443 1114.41 419.168C1190.18 464.718 1297.64 476.436 1382.34 455.512C1445.19 439.987 1491.01 414.847 1522.18 356.673C1544.41 315.189 1549.69 269.218 1507.33 237.445C1438.72 185.988 1316.02 217.118 1248.71 252.072C1170.59 292.634 1124.6 384.1 1165.38 467.923C1186.75 511.836 1235.92 525.488 1279.07 534.85C1317.93 543.283 1386.44 559.624 1413.14 517.121C1431.76 487.487 1432.32 437.443 1414.47 407.201C1376.03 342.04 1263.69 355.847 1209.7 387.256C1147.56 423.414 1101.08 502.897 1131.47 574.962C1185.09 702.087 1371.22 679.025 1468.77 631.03C1503.78 613.803 1598.14 551.265 1561.18 493.187C1524.85 436.101 1398.15 451.499 1345.77 462.161C1303.17 470.832 1262.6 489.51 1236.08 524.877C1203.59 568.195 1235.47 591.549 1277.96 605.101C1322.27 619.234 1373.71 626.784 1419.79 616.403C1475.89 603.767 1532.73 558.856 1483.17 500.278C1435.84 444.327 1352.82 407.397 1280.62 403.655C1198.38 399.392 1124.99 460.754 1167.38 545.93C1195.21 601.868 1256.15 616.394 1313.86 607.982C1409.94 593.977 1490.41 534.631 1515.09 438.67C1528.77 385.439 1540.82 288.036 1489.38 247.64C1447.19 214.508 1383.03 220.066 1335.8 226.143C1256.4 236.359 1204.01 253.945 1135.91 296.616C1054.51 347.616 972.973 430.508 922.05 512.245C902.035 544.373 878.475 594.35 901.662 633.689C924.883 673.087 995.219 699.415 1035.07 702.389C1132.96 709.694 1235.93 659.238 1273.75 565.211C1331.3 422.11 1181.96 350.36 1065.43 344.928C991.966 341.503 915.624 359.278 857.339 405.871C817.397 437.801 798.452 486.541 858.669 508.256C920.358 530.502 998.23 528.639 1062.11 522.883C1124.85 517.229 1229.43 502.655 1259.12 434.459C1277.01 393.375 1227.4 373.482 1196.41 366.867C1078.12 341.625 926.071 363.919 822.768 428.032C804.793 439.188 786.473 453.391 777.559 472.577C755.477 520.1 817.846 541.582 844.929 551.914C912.315 577.619 988.146 585.99 1059.45 587.593C1118.34 588.918 1178.47 587.003 1232.97 561.443C1272.55 542.882 1308.79 494.724 1279.29 450.194C1228.56 373.619 1080.6 377.203 1004.05 386.369C938.776 394.185 869.109 416.126 822.103 464.377C791.479 495.812 765.114 557.702 815.898 584.934C890.635 625.01 1010.76 588.899 1078.73 554.13C1137.78 523.927 1188.9 489.421 1211.48 423.157C1233.51 358.491 1217.56 306.794 1161.61 265.369C1044.67 178.781 873.73 211.514 750.522 261.38C687.841 286.748 588.692 350.787 539.104 403.212C513.196 430.601 489.567 470.356 505.419 510.029C532.694 578.293 618.854 623.99 685.368 638.343C805.939 664.361 947.793 627.924 1044.38 552.8C1110.03 501.741 1168.98 421.258 1180.01 336.285C1193.54 231.98 1086.69 182.37 1000.06 170.962C896.391 157.311 801.194 194.536 718.61 254.731C680.252 282.69 613.311 335.583 605.144 391.91C596.008 454.925 660.239 464.261 704.87 467.701C846.469 478.616 1000.75 426.726 1123.72 360.662C1157.61 342.454 1333.9 225.63 1206.16 188.691C1121.02 164.072 1016.56 180.952 934.682 207.971C837.965 239.888 749.076 302.404 678.72 375.289C650.352 404.676 625.408 434.69 684.925 441.772C793.693 454.716 916.993 431.986 1012.91 379.278C1078.09 343.461 1173.84 277.276 1174.69 191.572C1175.92 67.5122 988.383 56.6796 904.321 65.2524C862.971 69.4695 772.037 91.2995 795.288 125.753C806.84 142.871 863.509 144.621 873.739 144.811C902.004 145.338 955.833 140.41 984.102 133.731C1010.85 127.41 1062.5 111.915 1066.1 76.5547C1069.37 44.4034 1041.45 31.7839 1015.13 22.4812C948.065 -1.21594 882.409 -1.03118 811.687 6.52508C665.789 22.1135 526.079 72.7695 398.601 144.368C389.307 149.588 170.189 274.486 242.586 320.329C297.095 354.845 403.492 331.147 457.993 315.232C471.493 311.29 562.654 285.937 565.254 247.64C568.241 203.651 486.127 199.725 442.037 199.55C399.559 199.38 356.725 203.335 315.275 212.625C296.356 216.865 170.189 251.748 158.816 299.054C137.251 388.756 502.583 378.866 535.558 378.391C614.188 377.26 725.373 379.207 795.51 333.404C822.123 316.024 839.117 294.131 819.665 262.709C795.671 223.949 744.281 209.655 704.87 199.328C623.307 177.956 528.963 170.284 445.583 186.475C391.784 196.921 300.779 236.632 332.117 309.691C360.534 375.938 443.039 411.27 507.413 425.595C559.202 437.118 614.226 442.086 663.428 416.509C699.797 397.603 722.128 366.008 707.529 323.874C679.697 243.548 567.058 239.958 500.1 251.185C429.943 262.949 281.578 321.035 301.978 420.054C316.009 488.161 399.72 525.747 455.999 544.601C525.92 568.024 593.253 577.64 666.531 584.491C733.22 590.726 796.148 594.642 862.215 581.61C929.54 568.329 996.234 531.337 1032.86 471.025C1074.55 402.366 1038.64 329.112 965.93 303.486C929.709 290.72 826.885 281.886 831.189 350.468C835.319 416.268 911.812 463.321 957.287 488.754C1064.05 548.468 1166.22 575.654 1287.27 591.804C1378.28 603.948 1534.08 618.812 1609.05 540.612C1651.12 496.728 1625.74 429.548 1576.69 407.201C1512.02 377.734 1430.55 451.989 1473.87 516.456C1503.8 561.013 1563.33 572.571 1612.6 578.729C1643.6 582.604 1732.7 585.892 1764.18 579.172C1804.82 570.497 1821.83 548.589 1773.93 518.894C1673.04 456.35 1527.09 442.963 1425.55 511.802C1390.55 535.534 1354.75 583.259 1394.31 621.722C1417.76 644.524 1467.72 637.855 1494.03 633.024C1522.47 627.804 1560.46 613.312 1569.6 581.388C1580.9 541.957 1514.72 529.382 1490.71 527.315C1379.1 517.711 1296.82 660.498 1391.2 740.506C1440.61 782.384 1517.56 793.126 1574.03 756.906C1651.72 707.083 1642.48 595.556 1569.16 547.26C1478.08 487.273 1349.89 588.917 1342.67 685.103C1340.63 712.278 1359.73 725.047 1385.22 724.107C1427.1 722.563 1458.72 687.605 1472.98 650.975C1514.8 543.535 1382.75 551.161 1328.04 603.993C1304.83 626.413 1270.17 682.774 1311.65 709.924C1382.02 755.988 1509 700.123 1564.28 654.077C1596.97 626.849 1627.52 578.145 1604.4 535.293C1573.11 477.309 1476.4 485.063 1424.67 499.613C1369.85 515.031 1323.46 548.887 1292.59 596.901C1267.71 635.592 1254.14 696.682 1293.47 732.085C1370.77 801.652 1582.17 726.925 1488.05 613.522C1440.74 556.519 1356.76 546.486 1289.04 564.103C1252.13 573.705 1141.55 629.879 1172.92 689.092C1192.56 726.186 1261.11 732.107 1294.8 734.523C1394.52 741.672 1462.63 699.85 1516.64 616.182C1560.9 547.61 1595.43 460.652 1583.34 377.061C1572.19 299.955 1497.4 255.396 1423.78 256.504C1335.21 257.837 1262.11 309.149 1212.81 379.721C1160.54 454.544 1102.43 623.789 1218.12 678.233C1293.91 713.898 1383.76 657.429 1425.11 595.572C1481.3 511.509 1431.58 418.033 1345.77 382.823C1286.94 358.679 1227.32 374.799 1175.13 405.206C1133.02 429.744 1055.59 487.547 1078.73 547.703C1101.19 606.102 1192.03 618.423 1242.5 625.711C1299.86 633.992 1395.5 637.498 1453.03 633.246C1493.46 630.258 1572.78 619.019 1611.27 595.128C1622.86 587.928 1634.99 576.159 1636.09 562.551C1639.81 516.327 1552.52 510.427 1538.36 509.364C1375.64 497.152 1184.22 557.174 1063.66 668.704C1049.04 682.232 990.919 748.332 1047.48 761.338C1100.79 773.594 1173.64 740.081 1206.6 698.843C1228.87 670.975 1219.78 645.186 1190.2 629.257C1126.09 594.733 1042.16 609.843 977.01 632.138C930.436 648.076 882.03 672.26 848.032 709.037C846.536 710.655 822.207 741.629 828.973 751.144C846.217 775.393 887.487 766.881 917.175 764.884C1021.46 757.867 1147.62 737.319 1226.77 661.612C1268.52 621.68 1287.93 574.843 1257.13 521.331C1225.64 466.616 1166.89 450.988 1109.31 444.653C1046.25 437.715 952.972 448.825 910.083 504.71C858.637 571.747 973.347 631.846 1015.57 651.418C1098.31 689.767 1192.6 715.426 1283.28 724.772C1338.35 730.448 1465.54 735.297 1476.75 654.742C1484.36 600.044 1437.32 530.77 1398.96 497.176C1313.78 422.572 1159.49 426.482 1062.11 471.912C976.565 511.818 924.329 600.865 954.849 694.411C992.33 809.292 1147.27 881.634 1258.02 827.822C1326.05 794.765 1340.84 709.002 1328.93 641.667C1305.42 508.674 1197.23 410.266 1069.2 377.948C980.804 355.633 896.379 374.409 819.887 420.498C774.817 447.653 742.211 475.868 709.524 516.234C691.589 538.383 669.064 565.353 679.606 597.344C700.44 660.563 805.769 694.844 860.442 706.378C993.051 734.353 1162.37 695.698 1244.28 578.286C1294.78 505.893 1271.94 420.692 1187.1 393.461C1132.47 375.924 1081.83 386.409 1031.53 409.639C1013.02 418.184 960.318 445.741 966.373 480.555C974.287 526.06 1077.02 527.116 1105.99 527.758C1175.87 529.308 1251.95 506.101 1293.47 445.318C1324.61 399.735 1308.32 355.733 1265.77 325.426C1155.97 247.214 991.132 283.278 873.96 318.999C746.963 357.715 624.722 418.923 535.115 519.78C505.676 552.914 447.046 641.914 445.14 693.081C442.894 753.373 495.875 787.937 548.855 795.466C701.626 817.177 858.241 734.73 955.514 622.608C1013.91 555.3 1052.89 480.789 1043.72 390.137C1036.29 316.693 997.097 287.364 932.688 260.936C799.987 206.488 632.537 210.874 493.895 232.127C413.827 244.4 318.597 273.18 246.575 313.68C216.642 330.512 158.627 376.795 142.417 412.519C111.377 480.928 170.69 534.74 223.306 564.546C341.059 631.25 488.367 647.347 621.1 651.64C668.894 653.185 766.5 662.327 798.834 609.312C820.418 573.92 805.527 521.695 783.321 492.3C742.007 437.611 663.517 394.655 602.485 371.3C527.859 342.742 410.412 311.408 332.782 352.462C258.219 391.895 319.238 482.138 354.057 523.769C390.883 567.8 569.142 734.293 578.108 581.388C580.902 533.727 552.021 487.149 507.635 468.809C486.879 460.233 462.643 459.508 442.037 469.252C400.951 488.683 422.148 493.81 385.748 521.11" stroke="#A2B6BB" stroke-width="3.89785" stroke-linecap="round"/>
</svg>
