<svg width="1280" height="1024" viewBox="0 0 1280 1024" fill="none" xmlns="http://www.w3.org/2000/svg">
<g clip-path="url(#clip0_630_2118)">
<rect width="1440" height="1024" transform="translate(-80)" fill="#E8E7E5"/>
<rect x="-80" width="1440" height="79" fill="black"/>
<path d="M-112.288 58V29.6364H-100.526C-97.3248 29.6364 -94.7888 30.3196 -92.9176 31.6861C-91.0464 33.0402 -90.1108 34.8807 -90.1108 37.2074C-90.1108 38.8693 -90.6402 40.1866 -91.6989 41.1591C-92.7576 42.1316 -94.161 42.7841 -95.9091 43.1165C-94.6411 43.2642 -93.4777 43.6458 -92.419 44.2614C-91.3603 44.8646 -90.5109 45.6771 -89.8707 46.6989C-89.2183 47.7206 -88.892 48.9394 -88.892 50.3551C-88.892 51.857 -89.2798 53.1866 -90.0554 54.3438C-90.831 55.4886 -91.9574 56.3873 -93.4347 57.0398C-94.8996 57.6799 -96.6662 58 -98.7344 58H-112.288ZM-107.099 53.3835H-98.7344C-97.3679 53.3835 -96.2969 53.0573 -95.5213 52.4048C-94.7457 51.7524 -94.358 50.866 -94.358 49.7457C-94.358 48.4285 -94.7457 47.3944 -95.5213 46.6435C-96.2969 45.8802 -97.3679 45.4986 -98.7344 45.4986H-107.099V53.3835ZM-107.099 41.4545H-100.47C-99.4361 41.4545 -98.5497 41.3068 -97.8111 41.0114C-97.0601 40.7159 -96.4877 40.2973 -96.0938 39.7557C-95.6875 39.2017 -95.4844 38.5492 -95.4844 37.7983C-95.4844 36.7027 -95.9337 35.8471 -96.8324 35.2315C-97.7311 34.616 -98.9621 34.3082 -100.526 34.3082H-107.099V41.4545ZM-78.6804 39.3864H-70.4446C-66.973 39.3864 -64.3016 40.2481 -62.4304 41.9716C-60.5592 43.6951 -59.6236 45.9171 -59.6236 48.6378C-59.6236 50.4105 -60.0421 52.0047 -60.8793 53.4205C-61.7164 54.8362 -62.9413 55.9564 -64.554 56.7812C-66.1667 57.5938 -68.1302 58 -70.4446 58H-82.8352V29.6364H-77.4247V53.2358H-70.4446C-68.8565 53.2358 -67.5516 52.8234 -66.5298 51.9986C-65.508 51.1615 -64.9972 50.0966 -64.9972 48.804C-64.9972 47.4375 -65.508 46.3234 -66.5298 45.4616C-67.5516 44.5876 -68.8565 44.1506 -70.4446 44.1506H-78.6804V39.3864ZM-55.598 58V29.6364H-50.0767V58H-55.598ZM-42.6673 58V29.6364H-19.5295V58H-24.94V34.4006H-37.2937V58H-42.6673ZM-14.3821 58L-14.4006 53.2173H-13.3849C-12.5971 53.2173 -11.9384 53.0511 -11.4091 52.7188C-10.8674 52.3741 -10.4242 51.7955 -10.0795 50.983C-9.73485 50.1705 -9.47017 49.0502 -9.28551 47.6222C-9.10085 46.1818 -8.96544 44.3722 -8.87926 42.1932L-8.38068 29.6364H11.4148V58H6.00426V34.4006H-3.26562L-3.70881 44.0398C-3.8196 46.3788 -4.05966 48.4223 -4.42898 50.1705C-4.78598 51.9186 -5.30919 53.3774 -5.99858 54.5469C-6.68797 55.7041 -7.57434 56.572 -8.65767 57.1506C-9.741 57.7169 -11.0582 58 -12.6094 58H-14.3821ZM31.0025 58.5724C28.208 58.5724 25.8013 57.9754 23.7823 56.7812C21.7757 55.5748 20.2246 53.8821 19.1289 51.7031C18.0456 49.5118 17.5039 46.9451 17.5039 44.0028C17.5039 41.0975 18.0456 38.5369 19.1289 36.321C20.2246 34.1051 21.7511 32.3755 23.7085 31.1321C25.6781 29.8887 27.9802 29.267 30.6147 29.267C32.2151 29.267 33.7662 29.5317 35.2681 30.0611C36.77 30.5904 38.118 31.4214 39.3121 32.554C40.5063 33.6866 41.448 35.1577 42.1374 36.9673C42.8268 38.7647 43.1715 40.9498 43.1715 43.5227V45.4801H20.6246V41.3438H37.761C37.761 39.8911 37.4656 38.6046 36.8746 37.4844C36.2837 36.3518 35.4528 35.4593 34.3817 34.8068C33.323 34.1544 32.0797 33.8281 30.6516 33.8281C29.1005 33.8281 27.7463 34.2098 26.5891 34.973C25.4442 35.724 24.5579 36.7088 23.93 37.9276C23.3145 39.134 23.0067 40.4451 23.0067 41.8608V45.0923C23.0067 46.9882 23.3391 48.6009 24.0039 49.9304C24.681 51.2599 25.6228 52.2756 26.8292 52.9773C28.0356 53.6667 29.4452 54.0114 31.0579 54.0114C32.1043 54.0114 33.0584 53.8636 33.9201 53.5682C34.7818 53.2604 35.5266 52.8049 36.1545 52.2017C36.7823 51.5985 37.2624 50.8537 37.5948 49.9673L42.8207 50.9091C42.4021 52.4479 41.6512 53.7959 40.5678 54.9531C39.4968 56.098 38.1488 56.9905 36.5238 57.6307C34.9111 58.2585 33.0707 58.5724 31.0025 58.5724ZM61.245 58.5724C58.4998 58.5724 56.1361 57.9508 54.1541 56.7074C52.1844 55.4517 50.6702 53.7221 49.6115 51.5185C48.5528 49.3149 48.0234 46.7912 48.0234 43.9474C48.0234 41.0668 48.5651 38.5246 49.6484 36.321C50.7318 34.1051 52.2583 32.3755 54.228 31.1321C56.1977 29.8887 58.5182 29.267 61.1896 29.267C63.344 29.267 65.2644 29.6671 66.951 30.4673C68.6375 31.2552 69.9979 32.3632 71.032 33.7912C72.0784 35.2192 72.7 36.8873 72.897 38.7955H67.5234C67.228 37.4659 66.5509 36.321 65.4922 35.3608C64.4458 34.4006 63.0424 33.9205 61.282 33.9205C59.7431 33.9205 58.3951 34.3267 57.2379 35.1392C56.093 35.9394 55.2005 37.0843 54.5604 38.5739C53.9202 40.0511 53.6001 41.7992 53.6001 43.8182C53.6001 45.8864 53.9141 47.6714 54.5419 49.1733C55.1697 50.6752 56.0561 51.8385 57.201 52.6634C58.3582 53.4882 59.7185 53.9006 61.282 53.9006C62.3284 53.9006 63.2763 53.7098 64.1257 53.3281C64.9875 52.9342 65.7076 52.3741 66.2862 51.6477C66.8771 50.9214 67.2895 50.0473 67.5234 49.0256H72.897C72.7 50.8598 72.103 52.4972 71.1058 53.9375C70.1087 55.3778 68.773 56.5104 67.0987 57.3352C65.4368 58.16 63.4856 58.5724 61.245 58.5724ZM98.0245 41.4361V46.2188H82.6609V41.4361H98.0245ZM84.212 29.6364V58H78.8015V29.6364H84.212ZM101.884 29.6364V58H96.4918V29.6364H101.884ZM114.681 50.2628L127.182 29.6364H133.128V58H127.718V37.3551L115.272 58H109.27V29.6364H114.681V50.2628ZM164.063 34.0497C163.103 34.062 162.18 34.2898 161.293 34.733C160.407 35.1761 159.674 35.767 159.096 36.5057C158.53 37.2443 158.246 38.0814 158.246 39.017H153.039C153.039 37.6875 153.335 36.4318 153.925 35.25C154.516 34.0682 155.323 33.0279 156.344 32.1293C157.366 31.2306 158.542 30.5227 159.871 30.0057C161.201 29.4886 162.598 29.2301 164.063 29.2301C166.735 29.2301 168.994 29.8826 170.84 31.1875C172.699 32.4801 174.109 34.2036 175.069 36.358C176.029 38.5 176.509 40.8513 176.509 43.4119V44.3352C176.509 46.8958 176.029 49.2533 175.069 51.4077C174.109 53.562 172.699 55.2855 170.84 56.5781C168.994 57.8707 166.735 58.517 164.063 58.517C161.921 58.517 160.019 58.0616 158.357 57.1506C156.695 56.2396 155.39 54.9962 154.442 53.4205C153.507 51.8324 153.039 50.0227 153.039 47.9915H158.246C158.246 49.0009 158.511 49.9366 159.04 50.7983C159.57 51.66 160.272 52.3556 161.146 52.8849C162.032 53.402 163.004 53.6667 164.063 53.679C165.651 53.6667 166.962 53.1866 167.996 52.2386C169.043 51.2907 169.818 50.1027 170.323 48.6747C170.84 47.2344 171.099 45.7879 171.099 44.3352V43.4119C171.099 41.8977 170.84 40.4266 170.323 38.9986C169.818 37.5705 169.043 36.3949 167.996 35.4716C166.962 34.536 165.651 34.062 164.063 34.0497ZM173.038 41.6207V45.8679H161.423V41.6207H173.038ZM198.567 51.1676L207.726 29.6364H212.49L200.616 58H196.517L184.884 29.6364H189.592L198.567 51.1676ZM188.06 29.6364V58H182.649V29.6364H188.06ZM209.222 58V29.6364H214.595V58H209.222ZM233.901 58.5724C231.242 58.5724 228.922 57.9631 226.94 56.7443C224.958 55.5256 223.419 53.8205 222.323 51.6293C221.228 49.438 220.68 46.8774 220.68 43.9474C220.68 41.0052 221.228 38.4323 222.323 36.2287C223.419 34.0251 224.958 32.3139 226.94 31.0952C228.922 29.8764 231.242 29.267 233.901 29.267C236.56 29.267 238.881 29.8764 240.863 31.0952C242.845 32.3139 244.384 34.0251 245.479 36.2287C246.575 38.4323 247.123 41.0052 247.123 43.9474C247.123 46.8774 246.575 49.438 245.479 51.6293C244.384 53.8205 242.845 55.5256 240.863 56.7443C238.881 57.9631 236.56 58.5724 233.901 58.5724ZM233.92 53.9375C235.643 53.9375 237.071 53.482 238.204 52.571C239.336 51.66 240.174 50.4474 240.715 48.9332C241.269 47.419 241.546 45.7509 241.546 43.929C241.546 42.1193 241.269 40.4574 240.715 38.9432C240.174 37.4167 239.336 36.1918 238.204 35.2685C237.071 34.3452 235.643 33.8835 233.92 33.8835C232.184 33.8835 230.744 34.3452 229.599 35.2685C228.466 36.1918 227.623 37.4167 227.069 38.9432C226.527 40.4574 226.256 42.1193 226.256 43.929C226.256 45.7509 226.527 47.419 227.069 48.9332C227.623 50.4474 228.466 51.66 229.599 52.571C230.744 53.482 232.184 53.9375 233.92 53.9375ZM276.424 29.6364V53.4759H280.578V67.1406H275.131V58H253.286V29.6364H258.696V53.2358H271.032V29.6364H276.424ZM292.11 50.2628L304.612 29.6364H310.558V58H305.147V37.3551L292.701 58H286.7V29.6364H292.11V50.2628ZM323.392 50.2628L335.893 29.6364H341.839V58H336.429V37.3551L323.983 58H317.981V29.6364H323.392V50.2628ZM363.024 58V29.6364H374.787C377.988 29.6364 380.524 30.3196 382.395 31.6861C384.266 33.0402 385.202 34.8807 385.202 37.2074C385.202 38.8693 384.672 40.1866 383.614 41.1591C382.555 42.1316 381.152 42.7841 379.403 43.1165C380.671 43.2642 381.835 43.6458 382.893 44.2614C383.952 44.8646 384.802 45.6771 385.442 46.6989C386.094 47.7206 386.42 48.9394 386.42 50.3551C386.42 51.857 386.033 53.1866 385.257 54.3438C384.482 55.4886 383.355 56.3873 381.878 57.0398C380.413 57.6799 378.646 58 376.578 58H363.024ZM368.213 53.3835H376.578C377.945 53.3835 379.016 53.0573 379.791 52.4048C380.567 51.7524 380.955 50.866 380.955 49.7457C380.955 48.4285 380.567 47.3944 379.791 46.6435C379.016 45.8802 377.945 45.4986 376.578 45.4986H368.213V53.3835ZM368.213 41.4545H374.842C375.876 41.4545 376.763 41.3068 377.501 41.0114C378.252 40.7159 378.825 40.2973 379.219 39.7557C379.625 39.2017 379.828 38.5492 379.828 37.7983C379.828 36.7027 379.379 35.8471 378.48 35.2315C377.581 34.616 376.35 34.3082 374.787 34.3082H368.213V41.4545ZM396.632 39.3864H404.868C408.339 39.3864 411.011 40.2481 412.882 41.9716C414.753 43.6951 415.689 45.9171 415.689 48.6378C415.689 50.4105 415.27 52.0047 414.433 53.4205C413.596 54.8362 412.371 55.9564 410.759 56.7812C409.146 57.5938 407.182 58 404.868 58H392.477V29.6364H397.888V53.2358H404.868C406.456 53.2358 407.761 52.8234 408.783 51.9986C409.804 51.1615 410.315 50.0966 410.315 48.804C410.315 47.4375 409.804 46.3234 408.783 45.4616C407.761 44.5876 406.456 44.1506 404.868 44.1506H396.632V39.3864ZM419.714 58V29.6364H425.236V58H419.714ZM432.645 58V29.6364H455.783V58H450.373V34.4006H438.019V58H432.645ZM460.93 58L460.912 53.2173H461.928C462.715 53.2173 463.374 53.0511 463.903 52.7188C464.445 52.3741 464.888 51.7955 465.233 50.983C465.578 50.1705 465.842 49.0502 466.027 47.6222C466.212 46.1818 466.347 44.3722 466.433 42.1932L466.932 29.6364H486.727V58H481.317V34.4006H472.047L471.604 44.0398C471.493 46.3788 471.253 48.4223 470.884 50.1705C470.527 51.9186 470.003 53.3774 469.314 54.5469C468.625 55.7041 467.738 56.572 466.655 57.1506C465.571 57.7169 464.254 58 462.703 58H460.93ZM506.315 58.5724C503.52 58.5724 501.114 57.9754 499.095 56.7812C497.088 55.5748 495.537 53.8821 494.441 51.7031C493.358 49.5118 492.816 46.9451 492.816 44.0028C492.816 41.0975 493.358 38.5369 494.441 36.321C495.537 34.1051 497.064 32.3755 499.021 31.1321C500.991 29.8887 503.293 29.267 505.927 29.267C507.528 29.267 509.079 29.5317 510.581 30.0611C512.083 30.5904 513.431 31.4214 514.625 32.554C515.819 33.6866 516.761 35.1577 517.45 36.9673C518.139 38.7647 518.484 40.9498 518.484 43.5227V45.4801H495.937V41.3438H513.074C513.074 39.8911 512.778 38.6046 512.187 37.4844C511.596 36.3518 510.765 35.4593 509.694 34.8068C508.636 34.1544 507.392 33.8281 505.964 33.8281C504.413 33.8281 503.059 34.2098 501.902 34.973C500.757 35.724 499.87 36.7088 499.243 37.9276C498.627 39.134 498.319 40.4451 498.319 41.8608V45.0923C498.319 46.9882 498.652 48.6009 499.316 49.9304C499.993 51.2599 500.935 52.2756 502.142 52.9773C503.348 53.6667 504.758 54.0114 506.37 54.0114C507.417 54.0114 508.371 53.8636 509.233 53.5682C510.094 53.2604 510.839 52.8049 511.467 52.2017C512.095 51.5985 512.575 50.8537 512.907 49.9673L518.133 50.9091C517.715 52.4479 516.964 53.7959 515.88 54.9531C514.809 56.098 513.461 56.9905 511.836 57.6307C510.224 58.2585 508.383 58.5724 506.315 58.5724ZM536.558 58.5724C533.812 58.5724 531.449 57.9508 529.467 56.7074C527.497 55.4517 525.983 53.7221 524.924 51.5185C523.865 49.3149 523.336 46.7912 523.336 43.9474C523.336 41.0668 523.878 38.5246 524.961 36.321C526.044 34.1051 527.571 32.3755 529.54 31.1321C531.51 29.8887 533.831 29.267 536.502 29.267C538.656 29.267 540.577 29.6671 542.263 30.4673C543.95 31.2552 545.31 32.3632 546.344 33.7912C547.391 35.2192 548.013 36.8873 548.21 38.7955H542.836C542.54 37.4659 541.863 36.321 540.805 35.3608C539.758 34.4006 538.355 33.9205 536.594 33.9205C535.056 33.9205 533.708 34.3267 532.55 35.1392C531.406 35.9394 530.513 37.0843 529.873 38.5739C529.233 40.0511 528.913 41.7992 528.913 43.8182C528.913 45.8864 529.227 47.6714 529.854 49.1733C530.482 50.6752 531.369 51.8385 532.513 52.6634C533.671 53.4882 535.031 53.9006 536.594 53.9006C537.641 53.9006 538.589 53.7098 539.438 53.3281C540.3 52.9342 541.02 52.3741 541.599 51.6477C542.19 50.9214 542.602 50.0473 542.836 49.0256H548.21C548.013 50.8598 547.415 52.4972 546.418 53.9375C545.421 55.3778 544.085 56.5104 542.411 57.3352C540.749 58.16 538.798 58.5724 536.558 58.5724ZM573.337 41.4361V46.2188H557.973V41.4361H573.337ZM559.525 29.6364V58H554.114V29.6364H559.525ZM577.196 29.6364V58H571.804V29.6364H577.196ZM589.993 50.2628L602.495 29.6364H608.441V58H603.03V37.3551L590.584 58H584.583V29.6364H589.993V50.2628ZM639.376 34.0497C638.415 34.062 637.492 34.2898 636.606 34.733C635.719 35.1761 634.987 35.767 634.408 36.5057C633.842 37.2443 633.559 38.0814 633.559 39.017H628.352C628.352 37.6875 628.647 36.4318 629.238 35.25C629.829 34.0682 630.635 33.0279 631.657 32.1293C632.679 31.2306 633.854 30.5227 635.184 30.0057C636.513 29.4886 637.911 29.2301 639.376 29.2301C642.047 29.2301 644.306 29.8826 646.153 31.1875C648.012 32.4801 649.421 34.2036 650.381 36.358C651.342 38.5 651.822 40.8513 651.822 43.4119V44.3352C651.822 46.8958 651.342 49.2533 650.381 51.4077C649.421 53.562 648.012 55.2855 646.153 56.5781C644.306 57.8707 642.047 58.517 639.376 58.517C637.234 58.517 635.332 58.0616 633.67 57.1506C632.008 56.2396 630.703 54.9962 629.755 53.4205C628.819 51.8324 628.352 50.0227 628.352 47.9915H633.559C633.559 49.0009 633.824 49.9366 634.353 50.7983C634.882 51.66 635.584 52.3556 636.458 52.8849C637.344 53.402 638.317 53.6667 639.376 53.679C640.964 53.6667 642.275 53.1866 643.309 52.2386C644.355 51.2907 645.131 50.1027 645.636 48.6747C646.153 47.2344 646.411 45.7879 646.411 44.3352V43.4119C646.411 41.8977 646.153 40.4266 645.636 38.9986C645.131 37.5705 644.355 36.3949 643.309 35.4716C642.275 34.536 640.964 34.062 639.376 34.0497ZM648.35 41.6207V45.8679H636.735V41.6207H648.35ZM673.879 51.1676L683.038 29.6364H687.803L675.929 58H671.83L660.196 29.6364H664.905L673.879 51.1676ZM663.372 29.6364V58H657.962V29.6364H663.372ZM684.534 58V29.6364H689.908V58H684.534ZM709.214 58.5724C706.555 58.5724 704.234 57.9631 702.252 56.7443C700.27 55.5256 698.731 53.8205 697.636 51.6293C696.54 49.438 695.992 46.8774 695.992 43.9474C695.992 41.0052 696.54 38.4323 697.636 36.2287C698.731 34.0251 700.27 32.3139 702.252 31.0952C704.234 29.8764 706.555 29.267 709.214 29.267C711.873 29.267 714.193 29.8764 716.175 31.0952C718.157 32.3139 719.696 34.0251 720.792 36.2287C721.888 38.4323 722.435 41.0052 722.435 43.9474C722.435 46.8774 721.888 49.438 720.792 51.6293C719.696 53.8205 718.157 55.5256 716.175 56.7443C714.193 57.9631 711.873 58.5724 709.214 58.5724ZM709.232 53.9375C710.956 53.9375 712.384 53.482 713.516 52.571C714.649 51.66 715.486 50.4474 716.028 48.9332C716.582 47.419 716.859 45.7509 716.859 43.929C716.859 42.1193 716.582 40.4574 716.028 38.9432C715.486 37.4167 714.649 36.1918 713.516 35.2685C712.384 34.3452 710.956 33.8835 709.232 33.8835C707.496 33.8835 706.056 34.3452 704.911 35.2685C703.779 36.1918 702.935 37.4167 702.381 38.9432C701.84 40.4574 701.569 42.1193 701.569 43.929C701.569 45.7509 701.84 47.419 702.381 48.9332C702.935 50.4474 703.779 51.66 704.911 52.571C706.056 53.482 707.496 53.9375 709.232 53.9375ZM751.736 29.6364V53.4759H755.891V67.1406H750.444V58H728.598V29.6364H734.009V53.2358H746.344V29.6364H751.736ZM767.423 50.2628L779.924 29.6364H785.87V58H780.46V37.3551L768.014 58H762.012V29.6364H767.423V50.2628ZM798.704 50.2628L811.206 29.6364H817.152V58H811.741V37.3551L799.295 58H793.294V29.6364H798.704V50.2628ZM838.337 58V29.6364H850.099C853.3 29.6364 855.836 30.3196 857.707 31.6861C859.579 33.0402 860.514 34.8807 860.514 37.2074C860.514 38.8693 859.985 40.1866 858.926 41.1591C857.867 42.1316 856.464 42.7841 854.716 43.1165C855.984 43.2642 857.147 43.6458 858.206 44.2614C859.265 44.8646 860.114 45.6771 860.754 46.6989C861.407 47.7206 861.733 48.9394 861.733 50.3551C861.733 51.857 861.345 53.1866 860.57 54.3438C859.794 55.4886 858.668 56.3873 857.19 57.0398C855.725 57.6799 853.959 58 851.891 58H838.337ZM843.526 53.3835H851.891C853.257 53.3835 854.328 53.0573 855.104 52.4048C855.879 51.7524 856.267 50.866 856.267 49.7457C856.267 48.4285 855.879 47.3944 855.104 46.6435C854.328 45.8802 853.257 45.4986 851.891 45.4986H843.526V53.3835ZM843.526 41.4545H850.155C851.189 41.4545 852.075 41.3068 852.814 41.0114C853.565 40.7159 854.137 40.2973 854.531 39.7557C854.938 39.2017 855.141 38.5492 855.141 37.7983C855.141 36.7027 854.691 35.8471 853.793 35.2315C852.894 34.616 851.663 34.3082 850.099 34.3082H843.526V41.4545ZM871.945 39.3864H880.18C883.652 39.3864 886.323 40.2481 888.195 41.9716C890.066 43.6951 891.001 45.9171 891.001 48.6378C891.001 50.4105 890.583 52.0047 889.746 53.4205C888.909 54.8362 887.684 55.9564 886.071 56.7812C884.458 57.5938 882.495 58 880.18 58H867.79V29.6364H873.2V53.2358H880.18C881.768 53.2358 883.073 52.8234 884.095 51.9986C885.117 51.1615 885.628 50.0966 885.628 48.804C885.628 47.4375 885.117 46.3234 884.095 45.4616C883.073 44.5876 881.768 44.1506 880.18 44.1506H871.945V39.3864ZM895.027 58V29.6364H900.548V58H895.027ZM907.958 58V29.6364H931.096V58H925.685V34.4006H913.331V58H907.958ZM936.243 58L936.224 53.2173H937.24C938.028 53.2173 938.687 53.0511 939.216 52.7188C939.758 52.3741 940.201 51.7955 940.545 50.983C940.89 50.1705 941.155 49.0502 941.339 47.6222C941.524 46.1818 941.66 44.3722 941.746 42.1932L942.244 29.6364H962.04V58H956.629V34.4006H947.359L946.916 44.0398C946.805 46.3788 946.565 48.4223 946.196 50.1705C945.839 51.9186 945.316 53.3774 944.626 54.5469C943.937 55.7041 943.051 56.572 941.967 57.1506C940.884 57.7169 939.567 58 938.016 58H936.243ZM981.627 58.5724C978.833 58.5724 976.426 57.9754 974.407 56.7812C972.401 55.5748 970.85 53.8821 969.754 51.7031C968.671 49.5118 968.129 46.9451 968.129 44.0028C968.129 41.0975 968.671 38.5369 969.754 36.321C970.85 34.1051 972.376 32.3755 974.333 31.1321C976.303 29.8887 978.605 29.267 981.24 29.267C982.84 29.267 984.391 29.5317 985.893 30.0611C987.395 30.5904 988.743 31.4214 989.937 32.554C991.131 33.6866 992.073 35.1577 992.762 36.9673C993.452 38.7647 993.797 40.9498 993.797 43.5227V45.4801H971.25V41.3438H988.386C988.386 39.8911 988.091 38.6046 987.5 37.4844C986.909 36.3518 986.078 35.4593 985.007 34.8068C983.948 34.1544 982.705 33.8281 981.277 33.8281C979.725 33.8281 978.371 34.2098 977.214 34.973C976.069 35.724 975.183 36.7088 974.555 37.9276C973.94 39.134 973.632 40.4451 973.632 41.8608V45.0923C973.632 46.9882 973.964 48.6009 974.629 49.9304C975.306 51.2599 976.248 52.2756 977.454 52.9773C978.661 53.6667 980.07 54.0114 981.683 54.0114C982.729 54.0114 983.683 53.8636 984.545 53.5682C985.407 53.2604 986.152 52.8049 986.779 52.2017C987.407 51.5985 987.887 50.8537 988.22 49.9673L993.446 50.9091C993.027 52.4479 992.276 53.7959 991.193 54.9531C990.122 56.098 988.774 56.9905 987.149 57.6307C985.536 58.2585 983.696 58.5724 981.627 58.5724ZM1011.87 58.5724C1009.12 58.5724 1006.76 57.9508 1004.78 56.7074C1002.81 55.4517 1001.3 53.7221 1000.24 51.5185C999.178 49.3149 998.648 46.7912 998.648 43.9474C998.648 41.0668 999.19 38.5246 1000.27 36.321C1001.36 34.1051 1002.88 32.3755 1004.85 31.1321C1006.82 29.8887 1009.14 29.267 1011.81 29.267C1013.97 29.267 1015.89 29.6671 1017.58 30.4673C1019.26 31.2552 1020.62 32.3632 1021.66 33.7912C1022.7 35.2192 1023.33 36.8873 1023.52 38.7955H1018.15C1017.85 37.4659 1017.18 36.321 1016.12 35.3608C1015.07 34.4006 1013.67 33.9205 1011.91 33.9205C1010.37 33.9205 1009.02 34.3267 1007.86 35.1392C1006.72 35.9394 1005.83 37.0843 1005.19 38.5739C1004.55 40.0511 1004.23 41.7992 1004.23 43.8182C1004.23 45.8864 1004.54 47.6714 1005.17 49.1733C1005.79 50.6752 1006.68 51.8385 1007.83 52.6634C1008.98 53.4882 1010.34 53.9006 1011.91 53.9006C1012.95 53.9006 1013.9 53.7098 1014.75 53.3281C1015.61 52.9342 1016.33 52.3741 1016.91 51.6477C1017.5 50.9214 1017.91 50.0473 1018.15 49.0256H1023.52C1023.33 50.8598 1022.73 52.4972 1021.73 53.9375C1020.73 55.3778 1019.4 56.5104 1017.72 57.3352C1016.06 58.16 1014.11 58.5724 1011.87 58.5724ZM1048.65 41.4361V46.2188H1033.29V41.4361H1048.65ZM1034.84 29.6364V58H1029.43V29.6364H1034.84ZM1052.51 29.6364V58H1047.12V29.6364H1052.51ZM1065.31 50.2628L1077.81 29.6364H1083.75V58H1078.34V37.3551L1065.9 58H1059.9V29.6364H1065.31V50.2628ZM1114.69 34.0497C1113.73 34.062 1112.8 34.2898 1111.92 34.733C1111.03 35.1761 1110.3 35.767 1109.72 36.5057C1109.15 37.2443 1108.87 38.0814 1108.87 39.017H1103.66C1103.66 37.6875 1103.96 36.4318 1104.55 35.25C1105.14 34.0682 1105.95 33.0279 1106.97 32.1293C1107.99 31.2306 1109.17 30.5227 1110.5 30.0057C1111.83 29.4886 1113.22 29.2301 1114.69 29.2301C1117.36 29.2301 1119.62 29.8826 1121.47 31.1875C1123.32 32.4801 1124.73 34.2036 1125.69 36.358C1126.65 38.5 1127.13 40.8513 1127.13 43.4119V44.3352C1127.13 46.8958 1126.65 49.2533 1125.69 51.4077C1124.73 53.562 1123.32 55.2855 1121.47 56.5781C1119.62 57.8707 1117.36 58.517 1114.69 58.517C1112.55 58.517 1110.64 58.0616 1108.98 57.1506C1107.32 56.2396 1106.02 54.9962 1105.07 53.4205C1104.13 51.8324 1103.66 50.0227 1103.66 47.9915H1108.87C1108.87 49.0009 1109.14 49.9366 1109.67 50.7983C1110.19 51.66 1110.9 52.3556 1111.77 52.8849C1112.66 53.402 1113.63 53.6667 1114.69 53.679C1116.28 53.6667 1117.59 53.1866 1118.62 52.2386C1119.67 51.2907 1120.44 50.1027 1120.95 48.6747C1121.47 47.2344 1121.72 45.7879 1121.72 44.3352V43.4119C1121.72 41.8977 1121.47 40.4266 1120.95 38.9986C1120.44 37.5705 1119.67 36.3949 1118.62 35.4716C1117.59 34.536 1116.28 34.062 1114.69 34.0497ZM1123.66 41.6207V45.8679H1112.05V41.6207H1123.66ZM1149.19 51.1676L1158.35 29.6364H1163.12L1151.24 58H1147.14L1135.51 29.6364H1140.22L1149.19 51.1676ZM1138.68 29.6364V58H1133.27V29.6364H1138.68ZM1159.85 58V29.6364H1165.22V58H1159.85ZM1184.53 58.5724C1181.87 58.5724 1179.55 57.9631 1177.56 56.7443C1175.58 55.5256 1174.04 53.8205 1172.95 51.6293C1171.85 49.438 1171.3 46.8774 1171.3 43.9474C1171.3 41.0052 1171.85 38.4323 1172.95 36.2287C1174.04 34.0251 1175.58 32.3139 1177.56 31.0952C1179.55 29.8764 1181.87 29.267 1184.53 29.267C1187.19 29.267 1189.51 29.8764 1191.49 31.0952C1193.47 32.3139 1195.01 34.0251 1196.1 36.2287C1197.2 38.4323 1197.75 41.0052 1197.75 43.9474C1197.75 46.8774 1197.2 49.438 1196.1 51.6293C1195.01 53.8205 1193.47 55.5256 1191.49 56.7443C1189.51 57.9631 1187.19 58.5724 1184.53 58.5724ZM1184.54 53.9375C1186.27 53.9375 1187.7 53.482 1188.83 52.571C1189.96 51.66 1190.8 50.4474 1191.34 48.9332C1191.89 47.419 1192.17 45.7509 1192.17 43.929C1192.17 42.1193 1191.89 40.4574 1191.34 38.9432C1190.8 37.4167 1189.96 36.1918 1188.83 35.2685C1187.7 34.3452 1186.27 33.8835 1184.54 33.8835C1182.81 33.8835 1181.37 34.3452 1180.22 35.2685C1179.09 36.1918 1178.25 37.4167 1177.69 38.9432C1177.15 40.4574 1176.88 42.1193 1176.88 43.929C1176.88 45.7509 1177.15 47.419 1177.69 48.9332C1178.25 50.4474 1179.09 51.66 1180.22 52.571C1181.37 53.482 1182.81 53.9375 1184.54 53.9375ZM1227.05 29.6364V53.4759H1231.2V67.1406H1225.76V58H1203.91V29.6364H1209.32V53.2358H1221.66V29.6364H1227.05ZM1242.74 50.2628L1255.24 29.6364H1261.18V58H1255.77V37.3551L1243.33 58H1237.32V29.6364H1242.74V50.2628ZM1274.02 50.2628L1286.52 29.6364H1292.46V58H1287.05V37.3551L1274.61 58H1268.61V29.6364H1274.02V50.2628ZM1313.65 58V29.6364H1325.41C1328.61 29.6364 1331.15 30.3196 1333.02 31.6861C1334.89 33.0402 1335.83 34.8807 1335.83 37.2074C1335.83 38.8693 1335.3 40.1866 1334.24 41.1591C1333.18 42.1316 1331.78 42.7841 1330.03 43.1165C1331.3 43.2642 1332.46 43.6458 1333.52 44.2614C1334.58 44.8646 1335.43 45.6771 1336.07 46.6989C1336.72 47.7206 1337.05 48.9394 1337.05 50.3551C1337.05 51.857 1336.66 53.1866 1335.88 54.3438C1335.11 55.4886 1333.98 56.3873 1332.5 57.0398C1331.04 57.6799 1329.27 58 1327.2 58H1313.65ZM1318.84 53.3835H1327.2C1328.57 53.3835 1329.64 53.0573 1330.42 52.4048C1331.19 51.7524 1331.58 50.866 1331.58 49.7457C1331.58 48.4285 1331.19 47.3944 1330.42 46.6435C1329.64 45.8802 1328.57 45.4986 1327.2 45.4986H1318.84V53.3835ZM1318.84 41.4545H1325.47C1326.5 41.4545 1327.39 41.3068 1328.13 41.0114C1328.88 40.7159 1329.45 40.2973 1329.84 39.7557C1330.25 39.2017 1330.45 38.5492 1330.45 37.7983C1330.45 36.7027 1330 35.8471 1329.11 35.2315C1328.21 34.616 1326.98 34.3082 1325.41 34.3082H1318.84V41.4545ZM1347.26 39.3864H1355.49C1358.96 39.3864 1361.64 40.2481 1363.51 41.9716C1365.38 43.6951 1366.31 45.9171 1366.31 48.6378C1366.31 50.4105 1365.9 52.0047 1365.06 53.4205C1364.22 54.8362 1363 55.9564 1361.38 56.7812C1359.77 57.5938 1357.81 58 1355.49 58H1343.1V29.6364H1348.51V53.2358H1355.49C1357.08 53.2358 1358.39 52.8234 1359.41 51.9986C1360.43 51.1615 1360.94 50.0966 1360.94 48.804C1360.94 47.4375 1360.43 46.3234 1359.41 45.4616C1358.39 44.5876 1357.08 44.1506 1355.49 44.1506H1347.26V39.3864ZM1370.34 58V29.6364H1375.86V58H1370.34ZM1383.27 58V29.6364H1406.41V58H1401V34.4006H1388.64V58H1383.27ZM1411.56 58L1411.54 53.2173H1412.55C1413.34 53.2173 1414 53.0511 1414.53 52.7188C1415.07 52.3741 1415.51 51.7955 1415.86 50.983C1416.2 50.1705 1416.47 49.0502 1416.65 47.6222C1416.84 46.1818 1416.97 44.3722 1417.06 42.1932L1417.56 29.6364H1437.35V58H1431.94V34.4006H1422.67L1422.23 44.0398C1422.12 46.3788 1421.88 48.4223 1421.51 50.1705C1421.15 51.9186 1420.63 53.3774 1419.94 54.5469C1419.25 55.7041 1418.36 56.572 1417.28 57.1506C1416.2 57.7169 1414.88 58 1413.33 58H1411.56ZM1456.94 58.5724C1454.15 58.5724 1451.74 57.9754 1449.72 56.7812C1447.71 55.5748 1446.16 53.8821 1445.07 51.7031C1443.98 49.5118 1443.44 46.9451 1443.44 44.0028C1443.44 41.0975 1443.98 38.5369 1445.07 36.321C1446.16 34.1051 1447.69 32.3755 1449.65 31.1321C1451.62 29.8887 1453.92 29.267 1456.55 29.267C1458.15 29.267 1459.7 29.5317 1461.21 30.0611C1462.71 30.5904 1464.06 31.4214 1465.25 32.554C1466.44 33.6866 1467.39 35.1577 1468.07 36.9673C1468.76 38.7647 1469.11 40.9498 1469.11 43.5227V45.4801H1446.56V41.3438H1463.7C1463.7 39.8911 1463.4 38.6046 1462.81 37.4844C1462.22 36.3518 1461.39 35.4593 1460.32 34.8068C1459.26 34.1544 1458.02 33.8281 1456.59 33.8281C1455.04 33.8281 1453.68 34.2098 1452.53 34.973C1451.38 35.724 1450.5 36.7088 1449.87 37.9276C1449.25 39.134 1448.94 40.4451 1448.94 41.8608V45.0923C1448.94 46.9882 1449.28 48.6009 1449.94 49.9304C1450.62 51.2599 1451.56 52.2756 1452.77 52.9773C1453.97 53.6667 1455.38 54.0114 1457 54.0114C1458.04 54.0114 1459 53.8636 1459.86 53.5682C1460.72 53.2604 1461.46 52.8049 1462.09 52.2017C1462.72 51.5985 1463.2 50.8537 1463.53 49.9673L1468.76 50.9091C1468.34 52.4479 1467.59 53.7959 1466.51 54.9531C1465.43 56.098 1464.09 56.9905 1462.46 57.6307C1460.85 58.2585 1459.01 58.5724 1456.94 58.5724ZM1487.18 58.5724C1484.44 58.5724 1482.07 57.9508 1480.09 56.7074C1478.12 55.4517 1476.61 53.7221 1475.55 51.5185C1474.49 49.3149 1473.96 46.7912 1473.96 43.9474C1473.96 41.0668 1474.5 38.5246 1475.59 36.321C1476.67 34.1051 1478.2 32.3755 1480.17 31.1321C1482.14 29.8887 1484.46 29.267 1487.13 29.267C1489.28 29.267 1491.2 29.6671 1492.89 30.4673C1494.58 31.2552 1495.94 32.3632 1496.97 33.7912C1498.02 35.2192 1498.64 36.8873 1498.83 38.7955H1493.46C1493.17 37.4659 1492.49 36.321 1491.43 35.3608C1490.38 34.4006 1488.98 33.9205 1487.22 33.9205C1485.68 33.9205 1484.33 34.3267 1483.18 35.1392C1482.03 35.9394 1481.14 37.0843 1480.5 38.5739C1479.86 40.0511 1479.54 41.7992 1479.54 43.8182C1479.54 45.8864 1479.85 47.6714 1480.48 49.1733C1481.11 50.6752 1481.99 51.8385 1483.14 52.6634C1484.3 53.4882 1485.66 53.9006 1487.22 53.9006C1488.27 53.9006 1489.21 53.7098 1490.06 53.3281C1490.92 52.9342 1491.65 52.3741 1492.22 51.6477C1492.81 50.9214 1493.23 50.0473 1493.46 49.0256H1498.83C1498.64 50.8598 1498.04 52.4972 1497.04 53.9375C1496.05 55.3778 1494.71 56.5104 1493.04 57.3352C1491.37 58.16 1489.42 58.5724 1487.18 58.5724ZM1523.96 41.4361V46.2188H1508.6V41.4361H1523.96ZM1510.15 29.6364V58H1504.74V29.6364H1510.15ZM1527.82 29.6364V58H1522.43V29.6364H1527.82ZM1540.62 50.2628L1553.12 29.6364H1559.07V58H1553.66V37.3551L1541.21 58H1535.21V29.6364H1540.62V50.2628Z" fill="#A2B6BB"/>
<path d="M94.3533 221.535C96.5209 281.746 98.4637 340.269 118.232 398.241C157.782 514.22 245.302 622.835 363.335 665.517C388.463 674.603 414.92 681.805 441.624 682.744C472.743 683.837 546.321 673.518 558.973 630.21C574.538 576.929 508.769 518.153 476.761 497.169C424.042 462.607 341.396 438.408 277.54 440.882C212.427 443.405 159.936 488.423 219.036 545.098C286.776 610.056 426.368 635.106 505.245 576.482C554.932 539.552 578.135 462.637 572.959 403.017C567.3 337.83 502.291 312.581 447.082 339.225C405.683 359.205 381.132 405.266 382.95 450.263C386.895 547.9 482.192 616.511 574.836 617.247C605.436 617.49 636.567 612.474 665.406 602.237C701.348 589.478 766.381 548.593 743.183 518.319C717.389 484.655 613.158 495.184 590.016 499.216C559.593 504.515 495.076 527.644 513.944 552.091C524.843 566.212 545.398 569.856 562.725 574.094C617.069 587.384 672.191 583.921 726.639 573.923C787.183 562.805 831.153 545.344 885.947 518.489C915.924 503.797 961.141 480.726 984.533 452.822C1015.5 415.886 968.679 400.518 938.992 397.9C870.945 391.899 781.009 410.667 727.15 455.21C694.213 482.45 693.253 515.854 730.903 538.957C806.688 585.462 916.287 565.844 994.597 538.446C1015.92 530.984 1038.14 523.866 1056.34 510.473C1092.2 484.081 1068.11 463.908 1034.51 455.551C973.776 440.444 877.988 447.069 819.938 458.962C793.845 464.308 694.209 490.578 672.228 528.553C642.118 580.573 806.192 574.954 806.463 574.947C851.149 573.751 888.264 569.662 929.611 552.944C943.549 547.308 984.689 530.017 983.169 504.333C980.422 457.942 874.095 448.242 847.228 445.317C764.068 436.264 673.35 455.021 603.661 502.968C568.765 526.977 551.801 559.967 577.053 598.143C623.379 668.18 735.334 672.145 809.192 666.54C833.732 664.678 858.948 662.985 882.024 654.43C915.318 642.086 932.713 614.242 887.823 593.368C822.064 562.788 714.157 563.429 648.69 573.582C561.334 587.129 462.543 622.669 390.455 676.262C352.786 704.266 284.61 779.678 345.084 823.46C379.81 848.601 433.113 851.719 472.496 852.456C535.091 853.627 584.364 849 642.209 823.119C707.378 793.96 773.19 733.86 789.236 660.911C808.972 571.192 711.221 557.98 648.008 563.348C581.984 568.955 504.678 586.698 451.346 628.504C425.333 648.896 397.205 678.968 405.123 716.686C415.662 766.89 463.657 776.903 507.462 781.672C619.731 793.893 749.674 759.69 841.088 692.978C865.473 675.182 923.564 619.888 905.22 575.288C890.757 540.121 825.629 537.629 800.152 538.787C752.607 540.948 693.759 557.954 654.66 586.545C634.954 600.955 592.138 648.123 620.376 673.704C637.374 689.101 672.315 688.69 693.378 689.907C695.164 690.011 766.939 691.898 741.819 672.851C705.72 645.479 644.53 641.61 602.467 639.932C554.938 638.035 511.742 640.481 465.503 651.871C452.629 655.043 398.065 667.065 393.695 693.831C383.766 754.649 561.539 745.623 570.23 745.171C645.751 741.243 745.433 721.943 815.162 690.59C855.552 672.428 915.978 632.82 932.511 585.18C955.463 519.044 880.996 479.827 833.924 463.056C716.067 421.064 592.051 436.878 476.59 478.065C413.119 500.707 343.927 530.61 303.466 587.909C274.984 628.245 244.064 703.634 298.349 738.007C351.481 771.649 433.711 778.308 493.988 772.632C551.214 767.243 593.052 754.791 641.185 722.485C665.716 706.021 726.661 663.954 705.659 618.27C695.551 596.284 673.058 579.679 650.396 571.194C566.691 539.853 433.797 545.815 351.566 557.89C239.667 574.322 -53.4096 663.367 48.983 711.399C72.0312 722.21 98.2938 724.287 123.349 728.796C186.84 740.222 245.066 745.583 309.607 745.341C373.419 745.102 419.431 740.069 481.536 726.579C527.898 716.509 572.293 705.579 611.848 678.138C650.544 651.294 679.461 602.032 662.677 553.455C639.048 485.07 545.592 460.552 483.583 451.116C437.221 444.061 371.918 437.479 329.733 464.761C268.839 504.144 325.088 567.026 369.134 586.716C424.675 611.543 502.887 620.009 557.267 585.522C644.972 529.9 628.155 411.277 561.702 347.413C469.255 258.567 314.476 301.661 254.514 405.405C238.549 433.026 229.352 472.889 246.839 502.627C269.943 541.919 340.088 559.974 381.244 564.713C424.635 569.709 461.634 553.22 475.567 508.767C514.484 384.603 354.177 337.843 264.407 331.209C179.268 324.916 53.7393 336.896 -8.32695 407.451C-84.805 494.39 109.151 533.793 150.981 541.857C232.4 557.553 317.972 560.93 400.518 554.649C462.527 549.931 567.982 541.702 571.765 457.427C574.705 391.957 514.444 359.617 460.386 341.954C415.724 327.362 328.654 315.146 281.975 312.276C241.694 309.8 181.692 310.727 141.429 322.51C106.95 332.6 24.8558 368.898 39.2607 420.756C51.3283 464.199 113.546 482.288 145.864 492.222C205.798 510.645 270.484 520.432 333.315 514.566C382.97 509.931 468.903 485.198 455.61 414.615C442.369 344.302 350.643 316.525 290.503 320.804C253.976 323.404 207.018 335.573 187.141 369.927C155.61 424.42 212.563 469.032 256.39 487.447C341.451 523.186 442.467 539.239 533.729 546.633C649.192 555.987 765.728 538.872 855.415 459.303C887.05 431.238 924.978 380.193 908.632 334.279C898.876 306.877 878.639 296.183 852.004 288.909C836.964 284.801 797.263 276.956 784.29 297.778C759.45 337.644 836.849 397.862 858.827 414.274C880.891 430.751 949.048 476.555 978.905 444.976C996.577 426.284 998.754 394.088 988.115 371.803C967.475 328.571 911.42 310.74 867.014 311.594C771.28 313.435 753.705 447.107 830.172 493.075C888.491 528.133 971.195 537.152 1036.39 521.048C1084.75 509.099 1120.02 489.749 1144.01 444.976C1161.12 413.047 1165.19 377.666 1132.58 353.212C1079.78 313.608 985.344 337.567 933.534 364.469C873.412 395.688 838.012 466.085 869.402 530.6C885.847 564.398 923.696 574.905 956.902 582.11C986.815 588.601 1039.54 601.178 1060.09 568.465C1074.42 545.657 1074.85 507.141 1061.12 483.865C1031.53 433.713 945.063 444.34 903.515 468.514C855.683 496.343 819.912 557.517 843.305 612.983C884.572 710.825 1027.83 693.075 1102.91 656.136C1129.85 642.877 1202.48 594.745 1174.03 550.044C1146.07 506.108 1048.55 517.959 1008.24 526.165C975.454 532.839 944.228 547.214 923.812 574.435C898.807 607.775 923.343 625.749 956.049 636.179C990.156 647.057 1029.74 652.868 1065.21 644.878C1108.39 635.153 1152.13 600.587 1113.99 555.502C1077.56 512.439 1013.66 484.016 958.096 481.136C894.797 477.855 838.317 525.082 870.937 590.639C892.359 633.691 939.264 644.871 983.68 638.397C1057.63 627.618 1119.56 581.942 1138.55 508.085C1149.09 467.115 1158.36 392.149 1118.77 361.058C1086.3 335.557 1036.92 339.836 1000.57 344.513C939.457 352.376 899.135 365.91 846.717 398.753C784.067 438.005 721.314 501.803 682.121 564.713C666.716 589.44 648.583 627.905 666.429 658.182C684.301 688.505 738.436 708.768 769.109 711.058C844.447 716.68 923.703 677.846 952.808 605.478C997.103 495.339 882.16 440.117 792.477 435.936C735.932 433.3 677.175 446.981 632.316 482.841C601.574 507.417 586.993 544.929 633.339 561.642C680.819 578.764 740.753 577.33 789.918 572.9C838.208 568.548 918.694 557.331 941.551 504.844C955.321 473.223 917.138 457.913 893.281 452.822C802.243 433.394 685.215 450.553 605.708 499.898C591.873 508.484 577.774 519.415 570.913 534.181C553.917 570.758 601.919 587.292 622.764 595.244C674.628 615.028 732.992 621.47 787.872 622.705C833.199 623.724 879.478 622.251 921.424 602.578C951.884 588.292 979.779 551.227 957.072 516.954C918.025 458.019 804.152 460.776 745.23 467.832C694.994 473.847 641.375 490.734 605.196 527.871C581.626 552.065 561.335 599.699 600.42 620.658C657.942 651.503 750.395 623.71 802.711 596.949C848.156 573.704 887.503 547.145 904.879 496.145C921.837 446.375 909.562 406.586 866.502 374.703C776.497 308.06 644.931 333.254 550.104 371.633C501.861 391.158 425.55 440.446 387.384 480.795C367.445 501.875 349.258 532.472 361.458 563.007C382.451 615.546 448.765 650.717 499.957 661.764C592.755 681.789 701.934 653.745 776.273 595.926C826.799 556.628 872.171 494.684 880.659 429.284C891.078 349.006 808.837 310.822 742.16 302.042C662.372 291.536 589.104 320.186 525.542 366.516C496.02 388.035 444.498 428.743 438.213 472.096C431.181 520.596 480.616 527.781 514.967 530.429C623.95 538.83 742.689 498.892 837.335 448.046C863.421 434.032 999.1 344.118 900.786 315.687C835.262 296.739 754.859 309.731 691.843 330.527C617.404 355.091 548.991 403.207 494.84 459.303C473.007 481.921 453.809 505.022 499.616 510.473C583.331 520.435 678.229 502.941 752.053 462.373C802.218 434.807 875.912 383.867 876.565 317.905C877.511 222.422 733.174 214.084 668.476 220.683C636.651 223.928 566.663 240.73 584.558 267.247C593.449 280.422 637.064 281.769 644.938 281.915C666.692 282.321 708.122 278.528 729.879 273.387C750.469 268.522 790.221 256.596 792.988 229.381C795.505 204.636 774.021 194.923 753.758 187.763C702.143 169.525 651.611 169.667 597.18 175.483C484.889 187.48 377.36 226.468 279.246 281.574C272.093 285.592 103.448 381.72 159.168 417.003C201.121 443.568 283.01 425.329 324.957 413.08C335.347 410.046 405.51 390.533 407.511 361.058C409.81 327.202 346.61 324.18 312.677 324.045C279.983 323.915 247.016 326.958 215.113 334.108C200.552 337.372 103.447 364.22 94.6944 400.629C78.0967 469.668 359.276 462.056 384.655 461.691C445.174 460.82 530.747 462.319 584.728 427.066C605.211 413.69 618.291 396.84 603.32 372.656C584.852 342.824 545.3 331.823 514.967 323.874C452.192 307.425 379.58 301.521 315.406 313.982C273.999 322.022 203.957 352.585 228.076 408.816C249.947 459.803 313.447 486.997 362.994 498.022C402.853 506.891 445.202 510.714 483.071 491.028C511.063 476.477 528.25 452.16 517.014 419.732C495.593 357.908 408.899 355.146 357.365 363.787C303.369 372.84 189.179 417.547 204.88 493.757C215.679 546.176 280.107 575.105 323.422 589.615C377.237 607.643 429.061 615.044 485.459 620.317C536.787 625.116 585.22 628.13 636.068 618.1C687.885 607.878 739.217 579.407 767.404 532.987C799.492 480.143 771.851 423.763 715.893 404.04C688.015 394.214 608.876 387.415 612.189 440.2C615.368 490.843 674.241 527.058 709.241 546.633C791.414 592.591 870.046 613.515 963.213 625.946C1033.26 635.292 1153.17 646.732 1210.87 586.545C1243.25 552.77 1223.72 501.064 1185.97 483.865C1136.19 461.185 1073.49 518.336 1106.83 567.953C1129.87 602.247 1175.69 611.143 1213.6 615.882C1237.46 618.865 1306.04 621.395 1330.27 616.223C1361.55 609.546 1374.64 592.685 1337.77 569.83C1260.13 521.693 1147.79 511.389 1069.65 564.371C1042.7 582.637 1015.15 619.369 1045.6 648.972C1063.65 666.522 1102.1 661.389 1122.35 657.671C1144.24 653.653 1173.47 642.499 1180.51 617.929C1189.21 587.581 1138.28 577.902 1119.79 576.311C1033.89 568.919 970.567 678.816 1043.21 740.395C1081.23 772.626 1140.46 780.894 1183.92 753.017C1243.71 714.671 1236.61 628.833 1180.17 591.662C1110.07 545.492 1011.41 623.723 1005.85 697.753C1004.29 718.669 1018.98 728.496 1038.6 727.773C1070.84 726.585 1095.17 699.679 1106.15 671.486C1138.34 588.795 1036.7 594.664 994.597 635.327C976.729 652.582 950.054 695.961 981.975 716.857C1036.14 752.31 1133.87 709.313 1176.42 673.874C1201.58 652.918 1225.09 615.433 1207.29 582.451C1183.21 537.824 1108.78 543.791 1068.96 554.99C1026.77 566.857 991.07 592.914 967.306 629.869C948.157 659.647 937.713 706.665 967.988 733.913C1027.48 787.456 1190.19 729.942 1117.74 642.661C1081.33 598.788 1016.69 591.066 964.577 604.625C936.17 612.015 851.062 655.25 875.201 700.824C890.323 729.373 943.08 733.93 969.012 735.79C1045.76 741.292 1098.18 709.104 1139.75 644.708C1173.81 591.932 1200.39 525.003 1191.09 460.668C1182.5 401.322 1124.94 367.028 1068.28 367.88C1000.11 368.906 943.847 408.399 905.903 462.715C865.672 520.302 820.952 650.563 909.996 692.466C968.327 719.916 1037.48 676.454 1069.3 628.845C1112.55 564.146 1074.28 492.202 1008.24 465.103C962.958 446.52 917.076 458.926 876.907 482.33C844.491 501.215 784.903 545.704 802.711 592.003C819.998 636.95 889.909 646.433 928.758 652.042C972.905 658.416 1046.52 661.114 1090.8 657.841C1121.91 655.542 1182.96 646.892 1212.58 628.504C1221.51 622.962 1230.84 613.904 1231.68 603.431C1234.55 567.854 1167.37 563.314 1156.46 562.495C1031.23 553.096 883.902 599.292 791.112 685.132C779.857 695.544 735.126 746.418 778.661 756.428C819.689 765.861 875.762 740.067 901.127 708.329C918.268 686.88 911.274 667.031 888.505 654.771C839.158 628.2 774.564 639.829 724.421 656.988C688.575 669.255 651.319 687.869 625.152 716.174C624.001 717.42 605.276 741.259 610.484 748.582C623.756 767.245 655.519 760.694 678.369 759.157C758.633 753.757 855.731 737.942 916.648 679.674C948.779 648.939 963.72 612.892 940.016 571.706C915.779 529.594 870.563 517.566 826.249 512.69C777.711 507.35 705.92 515.901 672.911 558.913C633.314 610.508 721.601 656.764 754.1 671.828C817.777 701.343 890.352 721.092 960.142 728.285C1002.53 732.653 1100.42 736.385 1109.05 674.386C1114.9 632.288 1078.7 578.97 1049.18 553.114C983.618 495.695 864.871 498.704 789.918 533.67C724.078 564.384 683.875 632.919 707.365 704.917C736.212 793.336 855.464 849.014 940.698 807.597C993.058 782.155 1004.44 716.148 995.279 664.323C977.183 561.964 893.911 486.224 795.376 461.35C727.341 444.175 662.363 458.626 603.491 494.099C568.802 514.999 543.707 536.715 518.549 567.783C504.745 584.83 487.409 605.588 495.523 630.21C511.557 678.866 592.625 705.251 634.704 714.128C736.767 735.659 867.082 705.908 930.123 615.541C968.991 559.824 951.411 494.248 886.117 473.29C844.068 459.792 805.095 467.862 766.38 485.741C752.138 492.318 711.574 513.527 716.234 540.322C722.325 575.345 801.397 576.158 823.69 576.652C877.476 577.845 936.03 559.984 967.988 513.202C991.955 478.119 979.415 444.253 946.668 420.926C862.161 360.73 735.29 388.487 645.108 415.98C547.365 445.778 453.281 492.887 384.314 570.512C361.657 596.014 316.532 664.513 315.065 703.894C313.336 750.298 354.113 776.9 394.889 782.695C512.471 799.405 633.01 735.949 707.876 649.654C752.82 597.85 782.821 540.502 775.761 470.731C770.042 414.205 739.881 391.632 690.308 371.292C588.175 329.385 459.296 332.761 352.589 349.118C290.964 358.565 217.67 380.715 162.238 411.886C139.201 424.841 94.5485 460.463 82.0726 487.958C58.1824 540.61 103.833 582.026 144.329 604.966C234.958 656.305 348.335 668.694 450.493 671.998C487.278 673.188 562.401 680.224 587.287 639.42C603.9 612.181 592.438 571.986 575.347 549.362C543.55 507.27 483.14 474.209 436.166 456.233C378.73 434.253 288.336 410.138 228.588 441.735C171.2 472.085 218.164 541.54 244.962 573.582C273.305 607.47 410.504 735.613 417.404 617.929C419.555 581.246 397.326 545.397 363.164 531.282C347.189 524.681 328.536 524.123 312.677 531.623C281.055 546.578 297.369 550.524 269.353 571.535" stroke="#A2B6BB" stroke-width="3" stroke-linecap="round"/>
</g>
<defs>
<clipPath id="clip0_630_2118">
<rect width="1440" height="1024" fill="white" transform="translate(-80)"/>
</clipPath>
</defs>
</svg>
